G04 #@! TF.GenerationSoftware,KiCad,Pcbnew,(5.0.0-3-g5ebb6b6)*
G04 #@! TF.CreationDate,2018-08-26T23:18:38+02:00*
G04 #@! TF.ProjectId,Pmod-I2S,506D6F642D4932532E6B696361645F70,rev?*
G04 #@! TF.SameCoordinates,Original*
G04 #@! TF.FileFunction,Copper,L2,Bot,Signal*
G04 #@! TF.FilePolarity,Positive*
%FSLAX46Y46*%
G04 Gerber Fmt 4.6, Leading zero omitted, Abs format (unit mm)*
G04 Created by KiCad (PCBNEW (5.0.0-3-g5ebb6b6)) date Sunday, 26 August 2018 at 23:18:38*
%MOMM*%
%LPD*%
G01*
G04 APERTURE LIST*
G04 #@! TA.AperFunction,ComponentPad*
%ADD10O,1.700000X1.700000*%
G04 #@! TD*
G04 #@! TA.AperFunction,ComponentPad*
%ADD11R,1.700000X1.700000*%
G04 #@! TD*
G04 #@! TA.AperFunction,ViaPad*
%ADD12C,0.685800*%
G04 #@! TD*
G04 #@! TA.AperFunction,Conductor*
%ADD13C,0.254000*%
G04 #@! TD*
G04 APERTURE END LIST*
D10*
G04 #@! TO.P,J2,6*
G04 #@! TO.N,/MCLK*
X91800000Y-63700000D03*
G04 #@! TO.P,J2,5*
G04 #@! TO.N,/LRCK*
X91800000Y-66240000D03*
G04 #@! TO.P,J2,4*
G04 #@! TO.N,/SCLK*
X91800000Y-68780000D03*
G04 #@! TO.P,J2,3*
G04 #@! TO.N,/SDIN*
X91800000Y-71320000D03*
G04 #@! TO.P,J2,2*
G04 #@! TO.N,GND*
X91800000Y-73860000D03*
D11*
G04 #@! TO.P,J2,1*
G04 #@! TO.N,/VCC*
X91800000Y-76400000D03*
G04 #@! TD*
D12*
G04 #@! TO.N,GND*
X105000000Y-74500000D03*
X100000000Y-66500000D03*
X109500000Y-66500000D03*
X94000000Y-62500000D03*
X112500000Y-77500000D03*
X112500000Y-62500000D03*
X108000000Y-70000000D03*
X100500000Y-77000000D03*
X96250000Y-70500000D03*
X94000000Y-76500000D03*
X101250000Y-73750000D03*
X98750000Y-74500000D03*
X109500000Y-77000000D03*
X109500000Y-62500000D03*
X100250000Y-62000000D03*
G04 #@! TD*
D13*
G04 #@! TO.N,GND*
G36*
X114290001Y-79290000D02*
X90710000Y-79290000D01*
X90710000Y-77849702D01*
X90950000Y-77897440D01*
X92650000Y-77897440D01*
X92897765Y-77848157D01*
X93107809Y-77707809D01*
X93248157Y-77497765D01*
X93297440Y-77250000D01*
X93297440Y-75550000D01*
X93248157Y-75302235D01*
X93107809Y-75092191D01*
X92897765Y-74951843D01*
X92794292Y-74931261D01*
X93071645Y-74626924D01*
X93241476Y-74216890D01*
X93120155Y-73987000D01*
X91927000Y-73987000D01*
X91927000Y-74007000D01*
X91673000Y-74007000D01*
X91673000Y-73987000D01*
X91653000Y-73987000D01*
X91653000Y-73733000D01*
X91673000Y-73733000D01*
X91673000Y-73713000D01*
X91927000Y-73713000D01*
X91927000Y-73733000D01*
X93120155Y-73733000D01*
X93241476Y-73503110D01*
X93071645Y-73093076D01*
X92681358Y-72664817D01*
X92551522Y-72603843D01*
X92870625Y-72390625D01*
X93198839Y-71899418D01*
X93314092Y-71320000D01*
X93198839Y-70740582D01*
X92870625Y-70249375D01*
X92572239Y-70050000D01*
X92870625Y-69850625D01*
X92968185Y-69704615D01*
X103015000Y-69704615D01*
X103015000Y-70295385D01*
X103241078Y-70841185D01*
X103658815Y-71258922D01*
X104204615Y-71485000D01*
X104795385Y-71485000D01*
X105341185Y-71258922D01*
X105758922Y-70841185D01*
X105985000Y-70295385D01*
X105985000Y-69704615D01*
X110015000Y-69704615D01*
X110015000Y-70295385D01*
X110241078Y-70841185D01*
X110658815Y-71258922D01*
X111204615Y-71485000D01*
X111795385Y-71485000D01*
X112341185Y-71258922D01*
X112758922Y-70841185D01*
X112985000Y-70295385D01*
X112985000Y-69704615D01*
X112758922Y-69158815D01*
X112341185Y-68741078D01*
X111795385Y-68515000D01*
X111204615Y-68515000D01*
X110658815Y-68741078D01*
X110241078Y-69158815D01*
X110015000Y-69704615D01*
X105985000Y-69704615D01*
X105758922Y-69158815D01*
X105341185Y-68741078D01*
X104795385Y-68515000D01*
X104204615Y-68515000D01*
X103658815Y-68741078D01*
X103241078Y-69158815D01*
X103015000Y-69704615D01*
X92968185Y-69704615D01*
X93198839Y-69359418D01*
X93314092Y-68780000D01*
X93198839Y-68200582D01*
X92870625Y-67709375D01*
X92572239Y-67510000D01*
X92870625Y-67310625D01*
X93198839Y-66819418D01*
X93314092Y-66240000D01*
X93198839Y-65660582D01*
X92870625Y-65169375D01*
X92572239Y-64970000D01*
X92870625Y-64770625D01*
X93198839Y-64279418D01*
X93314092Y-63700000D01*
X93198839Y-63120582D01*
X92870625Y-62629375D01*
X92379418Y-62301161D01*
X91946256Y-62215000D01*
X91653744Y-62215000D01*
X91220582Y-62301161D01*
X90729375Y-62629375D01*
X90710000Y-62658372D01*
X90710000Y-60710000D01*
X114290000Y-60710000D01*
X114290001Y-79290000D01*
X114290001Y-79290000D01*
G37*
X114290001Y-79290000D02*
X90710000Y-79290000D01*
X90710000Y-77849702D01*
X90950000Y-77897440D01*
X92650000Y-77897440D01*
X92897765Y-77848157D01*
X93107809Y-77707809D01*
X93248157Y-77497765D01*
X93297440Y-77250000D01*
X93297440Y-75550000D01*
X93248157Y-75302235D01*
X93107809Y-75092191D01*
X92897765Y-74951843D01*
X92794292Y-74931261D01*
X93071645Y-74626924D01*
X93241476Y-74216890D01*
X93120155Y-73987000D01*
X91927000Y-73987000D01*
X91927000Y-74007000D01*
X91673000Y-74007000D01*
X91673000Y-73987000D01*
X91653000Y-73987000D01*
X91653000Y-73733000D01*
X91673000Y-73733000D01*
X91673000Y-73713000D01*
X91927000Y-73713000D01*
X91927000Y-73733000D01*
X93120155Y-73733000D01*
X93241476Y-73503110D01*
X93071645Y-73093076D01*
X92681358Y-72664817D01*
X92551522Y-72603843D01*
X92870625Y-72390625D01*
X93198839Y-71899418D01*
X93314092Y-71320000D01*
X93198839Y-70740582D01*
X92870625Y-70249375D01*
X92572239Y-70050000D01*
X92870625Y-69850625D01*
X92968185Y-69704615D01*
X103015000Y-69704615D01*
X103015000Y-70295385D01*
X103241078Y-70841185D01*
X103658815Y-71258922D01*
X104204615Y-71485000D01*
X104795385Y-71485000D01*
X105341185Y-71258922D01*
X105758922Y-70841185D01*
X105985000Y-70295385D01*
X105985000Y-69704615D01*
X110015000Y-69704615D01*
X110015000Y-70295385D01*
X110241078Y-70841185D01*
X110658815Y-71258922D01*
X111204615Y-71485000D01*
X111795385Y-71485000D01*
X112341185Y-71258922D01*
X112758922Y-70841185D01*
X112985000Y-70295385D01*
X112985000Y-69704615D01*
X112758922Y-69158815D01*
X112341185Y-68741078D01*
X111795385Y-68515000D01*
X111204615Y-68515000D01*
X110658815Y-68741078D01*
X110241078Y-69158815D01*
X110015000Y-69704615D01*
X105985000Y-69704615D01*
X105758922Y-69158815D01*
X105341185Y-68741078D01*
X104795385Y-68515000D01*
X104204615Y-68515000D01*
X103658815Y-68741078D01*
X103241078Y-69158815D01*
X103015000Y-69704615D01*
X92968185Y-69704615D01*
X93198839Y-69359418D01*
X93314092Y-68780000D01*
X93198839Y-68200582D01*
X92870625Y-67709375D01*
X92572239Y-67510000D01*
X92870625Y-67310625D01*
X93198839Y-66819418D01*
X93314092Y-66240000D01*
X93198839Y-65660582D01*
X92870625Y-65169375D01*
X92572239Y-64970000D01*
X92870625Y-64770625D01*
X93198839Y-64279418D01*
X93314092Y-63700000D01*
X93198839Y-63120582D01*
X92870625Y-62629375D01*
X92379418Y-62301161D01*
X91946256Y-62215000D01*
X91653744Y-62215000D01*
X91220582Y-62301161D01*
X90729375Y-62629375D01*
X90710000Y-62658372D01*
X90710000Y-60710000D01*
X114290000Y-60710000D01*
X114290001Y-79290000D01*
G04 #@! TD*
M02*
