G04 #@! TF.GenerationSoftware,KiCad,Pcbnew,(5.0.0-3-g5ebb6b6)*
G04 #@! TF.CreationDate,2018-08-26T23:18:38+02:00*
G04 #@! TF.ProjectId,Pmod-I2S,506D6F642D4932532E6B696361645F70,rev?*
G04 #@! TF.SameCoordinates,Original*
G04 #@! TF.FileFunction,Legend,Bot*
G04 #@! TF.FilePolarity,Positive*
%FSLAX46Y46*%
G04 Gerber Fmt 4.6, Leading zero omitted, Abs format (unit mm)*
G04 Created by KiCad (PCBNEW (5.0.0-3-g5ebb6b6)) date Sunday, 26 August 2018 at 23:18:38*
%MOMM*%
%LPD*%
G01*
G04 APERTURE LIST*
%ADD10C,0.300000*%
%ADD11C,0.010000*%
%ADD12O,2.100000X2.100000*%
%ADD13R,2.100000X2.100000*%
%ADD14C,2.100000*%
G04 APERTURE END LIST*
D10*
X102357142Y-73321428D02*
X102500000Y-73250000D01*
X102571428Y-73178571D01*
X102642857Y-73035714D01*
X102642857Y-72964285D01*
X102571428Y-72821428D01*
X102500000Y-72750000D01*
X102357142Y-72678571D01*
X102071428Y-72678571D01*
X101928571Y-72750000D01*
X101857142Y-72821428D01*
X101785714Y-72964285D01*
X101785714Y-73035714D01*
X101857142Y-73178571D01*
X101928571Y-73250000D01*
X102071428Y-73321428D01*
X102357142Y-73321428D01*
X102500000Y-73392857D01*
X102571428Y-73464285D01*
X102642857Y-73607142D01*
X102642857Y-73892857D01*
X102571428Y-74035714D01*
X102500000Y-74107142D01*
X102357142Y-74178571D01*
X102071428Y-74178571D01*
X101928571Y-74107142D01*
X101857142Y-74035714D01*
X101785714Y-73892857D01*
X101785714Y-73607142D01*
X101857142Y-73464285D01*
X101928571Y-73392857D01*
X102071428Y-73321428D01*
X101142857Y-74035714D02*
X101071428Y-74107142D01*
X101142857Y-74178571D01*
X101214285Y-74107142D01*
X101142857Y-74035714D01*
X101142857Y-74178571D01*
X100500000Y-72821428D02*
X100428571Y-72750000D01*
X100285714Y-72678571D01*
X99928571Y-72678571D01*
X99785714Y-72750000D01*
X99714285Y-72821428D01*
X99642857Y-72964285D01*
X99642857Y-73107142D01*
X99714285Y-73321428D01*
X100571428Y-74178571D01*
X99642857Y-74178571D01*
X98714285Y-72678571D02*
X98571428Y-72678571D01*
X98428571Y-72750000D01*
X98357142Y-72821428D01*
X98285714Y-72964285D01*
X98214285Y-73250000D01*
X98214285Y-73607142D01*
X98285714Y-73892857D01*
X98357142Y-74035714D01*
X98428571Y-74107142D01*
X98571428Y-74178571D01*
X98714285Y-74178571D01*
X98857142Y-74107142D01*
X98928571Y-74035714D01*
X99000000Y-73892857D01*
X99071428Y-73607142D01*
X99071428Y-73250000D01*
X99000000Y-72964285D01*
X98928571Y-72821428D01*
X98857142Y-72750000D01*
X98714285Y-72678571D01*
X96785714Y-74178571D02*
X97642857Y-74178571D01*
X97214285Y-74178571D02*
X97214285Y-72678571D01*
X97357142Y-72892857D01*
X97500000Y-73035714D01*
X97642857Y-73107142D01*
X95928571Y-73321428D02*
X96071428Y-73250000D01*
X96142857Y-73178571D01*
X96214285Y-73035714D01*
X96214285Y-72964285D01*
X96142857Y-72821428D01*
X96071428Y-72750000D01*
X95928571Y-72678571D01*
X95642857Y-72678571D01*
X95500000Y-72750000D01*
X95428571Y-72821428D01*
X95357142Y-72964285D01*
X95357142Y-73035714D01*
X95428571Y-73178571D01*
X95500000Y-73250000D01*
X95642857Y-73321428D01*
X95928571Y-73321428D01*
X96071428Y-73392857D01*
X96142857Y-73464285D01*
X96214285Y-73607142D01*
X96214285Y-73892857D01*
X96142857Y-74035714D01*
X96071428Y-74107142D01*
X95928571Y-74178571D01*
X95642857Y-74178571D01*
X95500000Y-74107142D01*
X95428571Y-74035714D01*
X95357142Y-73892857D01*
X95357142Y-73607142D01*
X95428571Y-73464285D01*
X95500000Y-73392857D01*
X95642857Y-73321428D01*
X110683500Y-77005571D02*
X110683500Y-75505571D01*
X110040642Y-75648428D02*
X109969214Y-75577000D01*
X109826357Y-75505571D01*
X109469214Y-75505571D01*
X109326357Y-75577000D01*
X109254928Y-75648428D01*
X109183500Y-75791285D01*
X109183500Y-75934142D01*
X109254928Y-76148428D01*
X110112071Y-77005571D01*
X109183500Y-77005571D01*
X108612071Y-76934142D02*
X108397785Y-77005571D01*
X108040642Y-77005571D01*
X107897785Y-76934142D01*
X107826357Y-76862714D01*
X107754928Y-76719857D01*
X107754928Y-76577000D01*
X107826357Y-76434142D01*
X107897785Y-76362714D01*
X108040642Y-76291285D01*
X108326357Y-76219857D01*
X108469214Y-76148428D01*
X108540642Y-76077000D01*
X108612071Y-75934142D01*
X108612071Y-75791285D01*
X108540642Y-75648428D01*
X108469214Y-75577000D01*
X108326357Y-75505571D01*
X107969214Y-75505571D01*
X107754928Y-75577000D01*
X106040642Y-76577000D02*
X105326357Y-76577000D01*
X106183500Y-77005571D02*
X105683500Y-75505571D01*
X105183500Y-77005571D01*
X104040642Y-76005571D02*
X104040642Y-77005571D01*
X104683500Y-76005571D02*
X104683500Y-76791285D01*
X104612071Y-76934142D01*
X104469214Y-77005571D01*
X104254928Y-77005571D01*
X104112071Y-76934142D01*
X104040642Y-76862714D01*
X102683500Y-77005571D02*
X102683500Y-75505571D01*
X102683500Y-76934142D02*
X102826357Y-77005571D01*
X103112071Y-77005571D01*
X103254928Y-76934142D01*
X103326357Y-76862714D01*
X103397785Y-76719857D01*
X103397785Y-76291285D01*
X103326357Y-76148428D01*
X103254928Y-76077000D01*
X103112071Y-76005571D01*
X102826357Y-76005571D01*
X102683500Y-76077000D01*
X101969214Y-77005571D02*
X101969214Y-76005571D01*
X101969214Y-75505571D02*
X102040642Y-75577000D01*
X101969214Y-75648428D01*
X101897785Y-75577000D01*
X101969214Y-75505571D01*
X101969214Y-75648428D01*
X101040642Y-77005571D02*
X101183500Y-76934142D01*
X101254928Y-76862714D01*
X101326357Y-76719857D01*
X101326357Y-76291285D01*
X101254928Y-76148428D01*
X101183500Y-76077000D01*
X101040642Y-76005571D01*
X100826357Y-76005571D01*
X100683500Y-76077000D01*
X100612071Y-76148428D01*
X100540642Y-76291285D01*
X100540642Y-76719857D01*
X100612071Y-76862714D01*
X100683500Y-76934142D01*
X100826357Y-77005571D01*
X101040642Y-77005571D01*
X98754928Y-77005571D02*
X98754928Y-75505571D01*
X98397785Y-75505571D01*
X98183500Y-75577000D01*
X98040642Y-75719857D01*
X97969214Y-75862714D01*
X97897785Y-76148428D01*
X97897785Y-76362714D01*
X97969214Y-76648428D01*
X98040642Y-76791285D01*
X98183500Y-76934142D01*
X98397785Y-77005571D01*
X98754928Y-77005571D01*
X97326357Y-76577000D02*
X96612071Y-76577000D01*
X97469214Y-77005571D02*
X96969214Y-75505571D01*
X96469214Y-77005571D01*
X95112071Y-76862714D02*
X95183500Y-76934142D01*
X95397785Y-77005571D01*
X95540642Y-77005571D01*
X95754928Y-76934142D01*
X95897785Y-76791285D01*
X95969214Y-76648428D01*
X96040642Y-76362714D01*
X96040642Y-76148428D01*
X95969214Y-75862714D01*
X95897785Y-75719857D01*
X95754928Y-75577000D01*
X95540642Y-75505571D01*
X95397785Y-75505571D01*
X95183500Y-75577000D01*
X95112071Y-75648428D01*
X112257957Y-65678571D02*
X112257957Y-64178571D01*
X112257957Y-64892857D02*
X111400814Y-64892857D01*
X111400814Y-65678571D02*
X111400814Y-64178571D01*
X110186528Y-64892857D02*
X109972242Y-64964285D01*
X109900814Y-65035714D01*
X109829385Y-65178571D01*
X109829385Y-65392857D01*
X109900814Y-65535714D01*
X109972242Y-65607142D01*
X110115100Y-65678571D01*
X110686528Y-65678571D01*
X110686528Y-64178571D01*
X110186528Y-64178571D01*
X110043671Y-64250000D01*
X109972242Y-64321428D01*
X109900814Y-64464285D01*
X109900814Y-64607142D01*
X109972242Y-64750000D01*
X110043671Y-64821428D01*
X110186528Y-64892857D01*
X110686528Y-64892857D01*
X109115100Y-65678571D02*
X108829385Y-65678571D01*
X108686528Y-65607142D01*
X108615100Y-65535714D01*
X108472242Y-65321428D01*
X108400814Y-65035714D01*
X108400814Y-64464285D01*
X108472242Y-64321428D01*
X108543671Y-64250000D01*
X108686528Y-64178571D01*
X108972242Y-64178571D01*
X109115100Y-64250000D01*
X109186528Y-64321428D01*
X109257957Y-64464285D01*
X109257957Y-64821428D01*
X109186528Y-64964285D01*
X109115100Y-65035714D01*
X108972242Y-65107142D01*
X108686528Y-65107142D01*
X108543671Y-65035714D01*
X108472242Y-64964285D01*
X108400814Y-64821428D01*
X106972242Y-64250000D02*
X107115100Y-64178571D01*
X107329385Y-64178571D01*
X107543671Y-64250000D01*
X107686528Y-64392857D01*
X107757957Y-64535714D01*
X107829385Y-64821428D01*
X107829385Y-65035714D01*
X107757957Y-65321428D01*
X107686528Y-65464285D01*
X107543671Y-65607142D01*
X107329385Y-65678571D01*
X107186528Y-65678571D01*
X106972242Y-65607142D01*
X106900814Y-65535714D01*
X106900814Y-65035714D01*
X107186528Y-65035714D01*
X106257957Y-65678571D02*
X106257957Y-64178571D01*
X105686528Y-64178571D01*
X105543671Y-64250000D01*
X105472242Y-64321428D01*
X105400814Y-64464285D01*
X105400814Y-64678571D01*
X105472242Y-64821428D01*
X105543671Y-64892857D01*
X105686528Y-64964285D01*
X106257957Y-64964285D01*
X103900814Y-65535714D02*
X103972242Y-65607142D01*
X104186528Y-65678571D01*
X104329385Y-65678571D01*
X104543671Y-65607142D01*
X104686528Y-65464285D01*
X104757957Y-65321428D01*
X104829385Y-65035714D01*
X104829385Y-64821428D01*
X104757957Y-64535714D01*
X104686528Y-64392857D01*
X104543671Y-64250000D01*
X104329385Y-64178571D01*
X104186528Y-64178571D01*
X103972242Y-64250000D01*
X103900814Y-64321428D01*
D11*
G04 #@! TO.C,G\002A\002A\002A*
G36*
X100873578Y-61504660D02*
X100872130Y-61504725D01*
X100801100Y-61510603D01*
X100738101Y-61522911D01*
X100679017Y-61544154D01*
X100619729Y-61576835D01*
X100556120Y-61623458D01*
X100484074Y-61686530D01*
X100399471Y-61768553D01*
X100341221Y-61827648D01*
X100124379Y-62057196D01*
X99933537Y-62274504D01*
X99767936Y-62480630D01*
X99626814Y-62676633D01*
X99509413Y-62863570D01*
X99414972Y-63042501D01*
X99342730Y-63214482D01*
X99340396Y-63220941D01*
X99324911Y-63268706D01*
X99314709Y-63314730D01*
X99308768Y-63367334D01*
X99306067Y-63434838D01*
X99305553Y-63504823D01*
X99308135Y-63608832D01*
X99317200Y-63690837D01*
X99334802Y-63758385D01*
X99362998Y-63819025D01*
X99403843Y-63880304D01*
X99410063Y-63888545D01*
X99432839Y-63921548D01*
X99444680Y-63944892D01*
X99445191Y-63948326D01*
X99433234Y-63965860D01*
X99401942Y-63997993D01*
X99355618Y-64041040D01*
X99298563Y-64091317D01*
X99235080Y-64145138D01*
X99169468Y-64198817D01*
X99106030Y-64248671D01*
X99049068Y-64291014D01*
X99027888Y-64305823D01*
X98872491Y-64400271D01*
X98724953Y-64466197D01*
X98584754Y-64503760D01*
X98451375Y-64513123D01*
X98380006Y-64506193D01*
X98316017Y-64494158D01*
X98254356Y-64478086D01*
X98191693Y-64456269D01*
X98124698Y-64426997D01*
X98050041Y-64388564D01*
X97964390Y-64339259D01*
X97864416Y-64277376D01*
X97746788Y-64201205D01*
X97616058Y-64114323D01*
X97453598Y-64007540D01*
X97310089Y-63918080D01*
X97181628Y-63844019D01*
X97064308Y-63783433D01*
X96954226Y-63734397D01*
X96847474Y-63694987D01*
X96740149Y-63663278D01*
X96663189Y-63644766D01*
X96580069Y-63631797D01*
X96476059Y-63623732D01*
X96359749Y-63620577D01*
X96239728Y-63622338D01*
X96124585Y-63629019D01*
X96022909Y-63640627D01*
X96000384Y-63644338D01*
X95776752Y-63697203D01*
X95569166Y-63772829D01*
X95378984Y-63869966D01*
X95207562Y-63987367D01*
X95056257Y-64123783D01*
X94926423Y-64277967D01*
X94819419Y-64448669D01*
X94736601Y-64634643D01*
X94679325Y-64834638D01*
X94673011Y-64865817D01*
X94658575Y-64971432D01*
X94650886Y-65095574D01*
X94649950Y-65227655D01*
X94655774Y-65357090D01*
X94668363Y-65473292D01*
X94672634Y-65499405D01*
X94716035Y-65681776D01*
X94781336Y-65871705D01*
X94864877Y-66061270D01*
X94962997Y-66242547D01*
X95072038Y-66407613D01*
X95122147Y-66472590D01*
X95172239Y-66534297D01*
X95180647Y-68711823D01*
X95221496Y-68799018D01*
X95278893Y-68902269D01*
X95346102Y-68983787D01*
X95429775Y-69051555D01*
X95434636Y-69054809D01*
X95450703Y-69066009D01*
X95464603Y-69076321D01*
X95477568Y-69085781D01*
X95490829Y-69094426D01*
X95505615Y-69102293D01*
X95523160Y-69109417D01*
X95544692Y-69115836D01*
X95571445Y-69121585D01*
X95604647Y-69126701D01*
X95645532Y-69131220D01*
X95695328Y-69135180D01*
X95755269Y-69138615D01*
X95826583Y-69141564D01*
X95910503Y-69144061D01*
X96008260Y-69146144D01*
X96121084Y-69147849D01*
X96250207Y-69149213D01*
X96396859Y-69150271D01*
X96562272Y-69151060D01*
X96747676Y-69151618D01*
X96954302Y-69151979D01*
X97183382Y-69152181D01*
X97436147Y-69152259D01*
X97713827Y-69152251D01*
X98017654Y-69152193D01*
X98348858Y-69152122D01*
X98708671Y-69152072D01*
X98721705Y-69152071D01*
X101784647Y-69151879D01*
X101868430Y-69117413D01*
X101989062Y-69053397D01*
X102087784Y-68969254D01*
X102165596Y-68864038D01*
X102193509Y-68810734D01*
X102232882Y-68726764D01*
X102236886Y-67564044D01*
X102236988Y-67534967D01*
X101642705Y-67534967D01*
X101642705Y-68481593D01*
X101606032Y-68518267D01*
X101556707Y-68548526D01*
X101498199Y-68556956D01*
X101441084Y-68543654D01*
X101402516Y-68516393D01*
X101366294Y-68477845D01*
X101363912Y-67954443D01*
X101057913Y-67954443D01*
X101057654Y-68085945D01*
X101057120Y-68201333D01*
X101056323Y-68297853D01*
X101055278Y-68372753D01*
X101053995Y-68423278D01*
X101052488Y-68446676D01*
X101029348Y-68504677D01*
X100985936Y-68541115D01*
X100924173Y-68554440D01*
X100918976Y-68554466D01*
X100874154Y-68549828D01*
X100839599Y-68538943D01*
X100834587Y-68535789D01*
X100822865Y-68526217D01*
X100812824Y-68515359D01*
X100804335Y-68500967D01*
X100797266Y-68480793D01*
X100791489Y-68452590D01*
X100786873Y-68414108D01*
X100783287Y-68363100D01*
X100780603Y-68297318D01*
X100778688Y-68214514D01*
X100777414Y-68112440D01*
X100776650Y-67988847D01*
X100776266Y-67841487D01*
X100776132Y-67668113D01*
X100776119Y-67538638D01*
X100462352Y-67538638D01*
X100462352Y-68481593D01*
X100425679Y-68518267D01*
X100375989Y-68548660D01*
X100317612Y-68556147D01*
X100261055Y-68540729D01*
X100230085Y-68518267D01*
X100193411Y-68481593D01*
X100193411Y-67538638D01*
X100193648Y-67333279D01*
X100194349Y-67149836D01*
X100195495Y-66989403D01*
X100197072Y-66853077D01*
X100199061Y-66741954D01*
X100201446Y-66657129D01*
X100204211Y-66599698D01*
X100204252Y-66599313D01*
X99879647Y-66599313D01*
X99879647Y-67525815D01*
X99879612Y-67719325D01*
X99879421Y-67885201D01*
X99878944Y-68025691D01*
X99878051Y-68143042D01*
X99876611Y-68239504D01*
X99874494Y-68317324D01*
X99871570Y-68378749D01*
X99867710Y-68426029D01*
X99862782Y-68461412D01*
X99856657Y-68487144D01*
X99849205Y-68505475D01*
X99840295Y-68518653D01*
X99829797Y-68528925D01*
X99821177Y-68535789D01*
X99780323Y-68551754D01*
X99727223Y-68553950D01*
X99675702Y-68543211D01*
X99644093Y-68525117D01*
X99618316Y-68488646D01*
X99603276Y-68446676D01*
X99601769Y-68423281D01*
X99600486Y-68372758D01*
X99599440Y-68297860D01*
X99598644Y-68201341D01*
X99598110Y-68085955D01*
X99597851Y-67954454D01*
X99597880Y-67809593D01*
X99598209Y-67654125D01*
X99598852Y-67490804D01*
X99598852Y-67490790D01*
X99600459Y-67158050D01*
X99295152Y-67158050D01*
X99294677Y-67322144D01*
X99293860Y-67513459D01*
X99293645Y-67560730D01*
X99289470Y-68477845D01*
X99253248Y-68516393D01*
X99205245Y-68547548D01*
X99147122Y-68557052D01*
X99089458Y-68544807D01*
X99049732Y-68518267D01*
X99013058Y-68481593D01*
X99013058Y-68096016D01*
X98400999Y-68096016D01*
X98394747Y-68195553D01*
X98365693Y-68291316D01*
X98314785Y-68378950D01*
X98242966Y-68454099D01*
X98151182Y-68512408D01*
X98119866Y-68525977D01*
X98015873Y-68551066D01*
X97908150Y-68546532D01*
X97823452Y-68523108D01*
X97735424Y-68476284D01*
X97656800Y-68408440D01*
X97596714Y-68327853D01*
X97586489Y-68308411D01*
X97567388Y-68251361D01*
X97554599Y-68176703D01*
X97551510Y-68139553D01*
X97550961Y-68121647D01*
X96629582Y-68121647D01*
X96623861Y-68217356D01*
X96604151Y-68294298D01*
X96566632Y-68361806D01*
X96507485Y-68429212D01*
X96501144Y-68435423D01*
X96418428Y-68496502D01*
X96322579Y-68535637D01*
X96220473Y-68551711D01*
X96118986Y-68543604D01*
X96028974Y-68512264D01*
X95929690Y-68446991D01*
X95854887Y-68365821D01*
X95805636Y-68270435D01*
X95783011Y-68162516D01*
X95781570Y-68124475D01*
X95786254Y-68052652D01*
X95798525Y-67989264D01*
X95806496Y-67965916D01*
X95861780Y-67869198D01*
X95934818Y-67792758D01*
X96021238Y-67737509D01*
X96116668Y-67704361D01*
X96216737Y-67694227D01*
X96317073Y-67708016D01*
X96413304Y-67746642D01*
X96501058Y-67811015D01*
X96509632Y-67819335D01*
X96566693Y-67883693D01*
X96603155Y-67946433D01*
X96622815Y-68017124D01*
X96629470Y-68105337D01*
X96629582Y-68121647D01*
X97550961Y-68121647D01*
X97549627Y-68078168D01*
X97553997Y-68032733D01*
X97567389Y-67989523D01*
X97592568Y-67934809D01*
X97592935Y-67934063D01*
X97654065Y-67840399D01*
X97731666Y-67768932D01*
X97821415Y-67720397D01*
X97918992Y-67695530D01*
X98020075Y-67695065D01*
X98120341Y-67719738D01*
X98215470Y-67770284D01*
X98273492Y-67818319D01*
X98341317Y-67903044D01*
X98383504Y-67997061D01*
X98400999Y-68096016D01*
X99013058Y-68096016D01*
X99013058Y-67534967D01*
X99013081Y-67343410D01*
X99013194Y-67179493D01*
X99013466Y-67040976D01*
X99013964Y-66925616D01*
X99014759Y-66831172D01*
X99015094Y-66809202D01*
X98413677Y-66809202D01*
X98413539Y-66927579D01*
X98412858Y-66981211D01*
X98411126Y-67086186D01*
X98409312Y-67165499D01*
X98406926Y-67223367D01*
X98403480Y-67264006D01*
X98398485Y-67291633D01*
X98391451Y-67310467D01*
X98381890Y-67324722D01*
X98371719Y-67336063D01*
X98335497Y-67374588D01*
X97090513Y-67374588D01*
X96868746Y-67374571D01*
X96674928Y-67374491D01*
X96507124Y-67374305D01*
X96363402Y-67373967D01*
X96241826Y-67373434D01*
X96140463Y-67372662D01*
X96057379Y-67371607D01*
X95990640Y-67370224D01*
X95938313Y-67368469D01*
X95898464Y-67366299D01*
X95869158Y-67363669D01*
X95848462Y-67360536D01*
X95834442Y-67356854D01*
X95825164Y-67352580D01*
X95818695Y-67347671D01*
X95816480Y-67345539D01*
X95801656Y-67327740D01*
X95790279Y-67305185D01*
X95781990Y-67274136D01*
X95776428Y-67230852D01*
X95773233Y-67171593D01*
X95772045Y-67092621D01*
X95772505Y-66990196D01*
X95773643Y-66900588D01*
X95775307Y-66795332D01*
X95777099Y-66715795D01*
X95779477Y-66657815D01*
X95782900Y-66617230D01*
X95787826Y-66589880D01*
X95794715Y-66571601D01*
X95804023Y-66558232D01*
X95812322Y-66549470D01*
X95846351Y-66515470D01*
X97071363Y-66511479D01*
X97298242Y-66510707D01*
X97497122Y-66510059D01*
X97669887Y-66509672D01*
X97818418Y-66509684D01*
X97944601Y-66510233D01*
X98050318Y-66511457D01*
X98137453Y-66513494D01*
X98207888Y-66516483D01*
X98263507Y-66520561D01*
X98306194Y-66525866D01*
X98337831Y-66532537D01*
X98360303Y-66540711D01*
X98375491Y-66550526D01*
X98385281Y-66562121D01*
X98391554Y-66575634D01*
X98396194Y-66591202D01*
X98401078Y-66608940D01*
X98407392Y-66648168D01*
X98411610Y-66715493D01*
X98413677Y-66809202D01*
X99015094Y-66809202D01*
X99015917Y-66755402D01*
X99017507Y-66696065D01*
X99019597Y-66650919D01*
X99022256Y-66617721D01*
X99025552Y-66594232D01*
X99029554Y-66578209D01*
X99034329Y-66567410D01*
X99039946Y-66559594D01*
X99042882Y-66556329D01*
X99089826Y-66525510D01*
X99149421Y-66512751D01*
X99208716Y-66520691D01*
X99211907Y-66521855D01*
X99228873Y-66528642D01*
X99243446Y-66536599D01*
X99255797Y-66547895D01*
X99266097Y-66564701D01*
X99274517Y-66589189D01*
X99281227Y-66623530D01*
X99286398Y-66669894D01*
X99290202Y-66730453D01*
X99292808Y-66807377D01*
X99294388Y-66902837D01*
X99295112Y-67019004D01*
X99295152Y-67158050D01*
X99600459Y-67158050D01*
X99603235Y-66583522D01*
X99637268Y-66549496D01*
X99685313Y-66520704D01*
X99743224Y-66513013D01*
X99800131Y-66526007D01*
X99843587Y-66557392D01*
X99879647Y-66599313D01*
X100204252Y-66599313D01*
X100207338Y-66570757D01*
X100208238Y-66567979D01*
X100231853Y-66544868D01*
X100270064Y-66524882D01*
X100275473Y-66522979D01*
X100330792Y-66515165D01*
X100385812Y-66524147D01*
X100429915Y-66547148D01*
X100447526Y-66567979D01*
X100450748Y-66589081D01*
X100453612Y-66638967D01*
X100456101Y-66716542D01*
X100458198Y-66820710D01*
X100459887Y-66950375D01*
X100461150Y-67104441D01*
X100461972Y-67281812D01*
X100462335Y-67481391D01*
X100462352Y-67538638D01*
X100776119Y-67538638D01*
X100776117Y-67525815D01*
X100776117Y-66599313D01*
X100812176Y-66557392D01*
X100857958Y-66525009D01*
X100915138Y-66512914D01*
X100972844Y-66521521D01*
X101018496Y-66549496D01*
X101052529Y-66583522D01*
X101056912Y-67490790D01*
X101057554Y-67654112D01*
X101057884Y-67809581D01*
X101057913Y-67954443D01*
X101363912Y-67954443D01*
X101362119Y-67560730D01*
X101361248Y-67362957D01*
X101360681Y-67192896D01*
X101360589Y-67048374D01*
X101361144Y-66927222D01*
X101362515Y-66827268D01*
X101364874Y-66746342D01*
X101368392Y-66682272D01*
X101373239Y-66632887D01*
X101379586Y-66596017D01*
X101387604Y-66569490D01*
X101397463Y-66551136D01*
X101409336Y-66538784D01*
X101423391Y-66530262D01*
X101439801Y-66523400D01*
X101443857Y-66521855D01*
X101502733Y-66512619D01*
X101562667Y-66524238D01*
X101610711Y-66554071D01*
X101612882Y-66556329D01*
X101618916Y-66563519D01*
X101624077Y-66572643D01*
X101628431Y-66585943D01*
X101632049Y-66605661D01*
X101634998Y-66634038D01*
X101637346Y-66673315D01*
X101639161Y-66725734D01*
X101640513Y-66793538D01*
X101641469Y-66878967D01*
X101642097Y-66984263D01*
X101642467Y-67111668D01*
X101642646Y-67263423D01*
X101642702Y-67441771D01*
X101642705Y-67534967D01*
X102236988Y-67534967D01*
X102237664Y-67342861D01*
X102238277Y-67149460D01*
X102238585Y-66981741D01*
X102238445Y-66837606D01*
X102237715Y-66714954D01*
X102236253Y-66611686D01*
X102233918Y-66525701D01*
X102230566Y-66454901D01*
X102226056Y-66397184D01*
X102220247Y-66350452D01*
X102212996Y-66312605D01*
X102204160Y-66281542D01*
X102193599Y-66255165D01*
X102181169Y-66231373D01*
X102166730Y-66208066D01*
X102150138Y-66183146D01*
X102142739Y-66172062D01*
X102075475Y-66087316D01*
X101994990Y-66019437D01*
X101893260Y-65961733D01*
X101886783Y-65958672D01*
X101799588Y-65917823D01*
X98744117Y-65913842D01*
X98388669Y-65913383D01*
X98061857Y-65912976D01*
X97762437Y-65912633D01*
X97489164Y-65912363D01*
X97240793Y-65912177D01*
X97016077Y-65912084D01*
X96813772Y-65912096D01*
X96632633Y-65912221D01*
X96471414Y-65912471D01*
X96328870Y-65912856D01*
X96203756Y-65913385D01*
X96094827Y-65914069D01*
X96000837Y-65914919D01*
X95920541Y-65915944D01*
X95852694Y-65917155D01*
X95796051Y-65918561D01*
X95749366Y-65920174D01*
X95711394Y-65922003D01*
X95680890Y-65924058D01*
X95656608Y-65926351D01*
X95637304Y-65928890D01*
X95621733Y-65931686D01*
X95608648Y-65934749D01*
X95596804Y-65938091D01*
X95591529Y-65939693D01*
X95533814Y-65959823D01*
X95481336Y-65982187D01*
X95450176Y-65999079D01*
X95405940Y-66028632D01*
X95348874Y-65930264D01*
X95258215Y-65751140D01*
X95191097Y-65568483D01*
X95148290Y-65386020D01*
X95130566Y-65207475D01*
X95138695Y-65036573D01*
X95149896Y-64968503D01*
X95198463Y-64799283D01*
X95272142Y-64645580D01*
X95369927Y-64508388D01*
X95490817Y-64388697D01*
X95633807Y-64287499D01*
X95797895Y-64205786D01*
X95982077Y-64144549D01*
X95984009Y-64144045D01*
X96086806Y-64124078D01*
X96204721Y-64112164D01*
X96328978Y-64108293D01*
X96450802Y-64112452D01*
X96561417Y-64124630D01*
X96652050Y-64144817D01*
X96652352Y-64144911D01*
X96730702Y-64171814D01*
X96810022Y-64204514D01*
X96894060Y-64245059D01*
X96986560Y-64295499D01*
X97091267Y-64357882D01*
X97211927Y-64434258D01*
X97352285Y-64526675D01*
X97362058Y-64533206D01*
X97519060Y-64636570D01*
X97656147Y-64722964D01*
X97776757Y-64794064D01*
X97884327Y-64851547D01*
X97982292Y-64897089D01*
X98074089Y-64932366D01*
X98163156Y-64959056D01*
X98252927Y-64978835D01*
X98287883Y-64984878D01*
X98386482Y-64994552D01*
X98499606Y-64995761D01*
X98615262Y-64989056D01*
X98721460Y-64974990D01*
X98779291Y-64962281D01*
X98963517Y-64898534D01*
X99151579Y-64805515D01*
X99342997Y-64683522D01*
X99537290Y-64532852D01*
X99684365Y-64401439D01*
X99731077Y-64357794D01*
X99769108Y-64323058D01*
X99793669Y-64301560D01*
X99800289Y-64296705D01*
X99814102Y-64304694D01*
X99844115Y-64325146D01*
X99867298Y-64341690D01*
X99966211Y-64396018D01*
X100082924Y-64430746D01*
X100212210Y-64445321D01*
X100348841Y-64439186D01*
X100487589Y-64411786D01*
X100498432Y-64408714D01*
X100661124Y-64350035D01*
X100836133Y-64264903D01*
X101022802Y-64153784D01*
X101220470Y-64017143D01*
X101428480Y-63855445D01*
X101646174Y-63669156D01*
X101660947Y-63655445D01*
X100399607Y-63655445D01*
X100380233Y-63744306D01*
X100339000Y-63818858D01*
X100280574Y-63876771D01*
X100209621Y-63915712D01*
X100130809Y-63933347D01*
X100048803Y-63927344D01*
X99968270Y-63895370D01*
X99946978Y-63881697D01*
X99880822Y-63818728D01*
X99836633Y-63740955D01*
X99818120Y-63655216D01*
X99817790Y-63643514D01*
X99823791Y-63568021D01*
X99846027Y-63506442D01*
X99888765Y-63445825D01*
X99955409Y-63386465D01*
X100030160Y-63352316D01*
X100108478Y-63341514D01*
X100185821Y-63352197D01*
X100257650Y-63382502D01*
X100319423Y-63430564D01*
X100366601Y-63494522D01*
X100394642Y-63572511D01*
X100399607Y-63655445D01*
X101660947Y-63655445D01*
X101834281Y-63494574D01*
X101224352Y-63494574D01*
X101213086Y-63521408D01*
X101185965Y-63553462D01*
X101153006Y-63581002D01*
X101124227Y-63594295D01*
X101121550Y-63594470D01*
X101106274Y-63584204D01*
X101072242Y-63554837D01*
X101021712Y-63508513D01*
X100956940Y-63447379D01*
X100880183Y-63373581D01*
X100793698Y-63289263D01*
X100699742Y-63196572D01*
X100630528Y-63127647D01*
X100514107Y-63011157D01*
X100417352Y-62913754D01*
X100338766Y-62833430D01*
X100276853Y-62768173D01*
X100230116Y-62715974D01*
X100197059Y-62674822D01*
X100176186Y-62642708D01*
X100166001Y-62617621D01*
X100165007Y-62597551D01*
X100171708Y-62580488D01*
X100184607Y-62564422D01*
X100200055Y-62549365D01*
X100239484Y-62524267D01*
X100271025Y-62523900D01*
X100288365Y-62536131D01*
X100323456Y-62567159D01*
X100373703Y-62614338D01*
X100436506Y-62675025D01*
X100509271Y-62746576D01*
X100589399Y-62826345D01*
X100674293Y-62911689D01*
X100761358Y-62999964D01*
X100847995Y-63088526D01*
X100931607Y-63174729D01*
X101009598Y-63255930D01*
X101079371Y-63329485D01*
X101138329Y-63392748D01*
X101183874Y-63443077D01*
X101213410Y-63477827D01*
X101224339Y-63494353D01*
X101224352Y-63494574D01*
X101834281Y-63494574D01*
X101872891Y-63458741D01*
X101951326Y-63382365D01*
X102040520Y-63292087D01*
X102109132Y-63215919D01*
X102121274Y-63199957D01*
X101508235Y-63199957D01*
X101495825Y-63245809D01*
X101464251Y-63279776D01*
X101421999Y-63296280D01*
X101377552Y-63289740D01*
X101374226Y-63288091D01*
X101355952Y-63273381D01*
X101319285Y-63239522D01*
X101266596Y-63188853D01*
X101200259Y-63123713D01*
X101122644Y-63046440D01*
X101036124Y-62959375D01*
X100943072Y-62864856D01*
X100891911Y-62812533D01*
X100797578Y-62715224D01*
X100710074Y-62623796D01*
X100631561Y-62540591D01*
X100564198Y-62467955D01*
X100510148Y-62408231D01*
X100471571Y-62363764D01*
X100450630Y-62336897D01*
X100447411Y-62330419D01*
X100459659Y-62295694D01*
X100489195Y-62261539D01*
X100525204Y-62238686D01*
X100543716Y-62234823D01*
X100561575Y-62245198D01*
X100597412Y-62274561D01*
X100648587Y-62320271D01*
X100712458Y-62379686D01*
X100786385Y-62450164D01*
X100867730Y-62529062D01*
X100953850Y-62613740D01*
X101042107Y-62701554D01*
X101129859Y-62789864D01*
X101214467Y-62876028D01*
X101293291Y-62957403D01*
X101363690Y-63031347D01*
X101423024Y-63095220D01*
X101468653Y-63146378D01*
X101497937Y-63182180D01*
X101508235Y-63199957D01*
X102121274Y-63199957D01*
X102159858Y-63149238D01*
X102195395Y-63087418D01*
X102218439Y-63025834D01*
X102231688Y-62959862D01*
X102234740Y-62924167D01*
X101794558Y-62924167D01*
X101775194Y-62968403D01*
X101750051Y-62993088D01*
X101734968Y-63003601D01*
X101719451Y-63009244D01*
X101701473Y-63008375D01*
X101679006Y-62999351D01*
X101650024Y-62980528D01*
X101612498Y-62950263D01*
X101564401Y-62906912D01*
X101503707Y-62848832D01*
X101428388Y-62774380D01*
X101336416Y-62681913D01*
X101225764Y-62569787D01*
X101217600Y-62561498D01*
X101122224Y-62464376D01*
X101032766Y-62372743D01*
X100951550Y-62289018D01*
X100880904Y-62215624D01*
X100823151Y-62154981D01*
X100780618Y-62109512D01*
X100755629Y-62081637D01*
X100750440Y-62075054D01*
X100735884Y-62047921D01*
X100738479Y-62026111D01*
X100756640Y-61998644D01*
X100792696Y-61966756D01*
X100828571Y-61953450D01*
X100840701Y-61954009D01*
X100855802Y-61959572D01*
X100875893Y-61971958D01*
X100902994Y-61992988D01*
X100939122Y-62024483D01*
X100986296Y-62068262D01*
X101046536Y-62126146D01*
X101121860Y-62199955D01*
X101214287Y-62291510D01*
X101317401Y-62394215D01*
X101413449Y-62490444D01*
X101503367Y-62581321D01*
X101584828Y-62664436D01*
X101655503Y-62737379D01*
X101713066Y-62797740D01*
X101755190Y-62843110D01*
X101779547Y-62871077D01*
X101784321Y-62877755D01*
X101794558Y-62924167D01*
X102234740Y-62924167D01*
X102237534Y-62891508D01*
X102237400Y-62777205D01*
X102223368Y-62675067D01*
X102193019Y-62574159D01*
X102143930Y-62463541D01*
X102141906Y-62459486D01*
X102057065Y-62311126D01*
X101954011Y-62165871D01*
X101836441Y-62026982D01*
X101708051Y-61897721D01*
X101572536Y-61781348D01*
X101433594Y-61681123D01*
X101294920Y-61600308D01*
X101160211Y-61542163D01*
X101074161Y-61517544D01*
X101016556Y-61509137D01*
X100944572Y-61504517D01*
X100873578Y-61504660D01*
X100873578Y-61504660D01*
G37*
X100873578Y-61504660D02*
X100872130Y-61504725D01*
X100801100Y-61510603D01*
X100738101Y-61522911D01*
X100679017Y-61544154D01*
X100619729Y-61576835D01*
X100556120Y-61623458D01*
X100484074Y-61686530D01*
X100399471Y-61768553D01*
X100341221Y-61827648D01*
X100124379Y-62057196D01*
X99933537Y-62274504D01*
X99767936Y-62480630D01*
X99626814Y-62676633D01*
X99509413Y-62863570D01*
X99414972Y-63042501D01*
X99342730Y-63214482D01*
X99340396Y-63220941D01*
X99324911Y-63268706D01*
X99314709Y-63314730D01*
X99308768Y-63367334D01*
X99306067Y-63434838D01*
X99305553Y-63504823D01*
X99308135Y-63608832D01*
X99317200Y-63690837D01*
X99334802Y-63758385D01*
X99362998Y-63819025D01*
X99403843Y-63880304D01*
X99410063Y-63888545D01*
X99432839Y-63921548D01*
X99444680Y-63944892D01*
X99445191Y-63948326D01*
X99433234Y-63965860D01*
X99401942Y-63997993D01*
X99355618Y-64041040D01*
X99298563Y-64091317D01*
X99235080Y-64145138D01*
X99169468Y-64198817D01*
X99106030Y-64248671D01*
X99049068Y-64291014D01*
X99027888Y-64305823D01*
X98872491Y-64400271D01*
X98724953Y-64466197D01*
X98584754Y-64503760D01*
X98451375Y-64513123D01*
X98380006Y-64506193D01*
X98316017Y-64494158D01*
X98254356Y-64478086D01*
X98191693Y-64456269D01*
X98124698Y-64426997D01*
X98050041Y-64388564D01*
X97964390Y-64339259D01*
X97864416Y-64277376D01*
X97746788Y-64201205D01*
X97616058Y-64114323D01*
X97453598Y-64007540D01*
X97310089Y-63918080D01*
X97181628Y-63844019D01*
X97064308Y-63783433D01*
X96954226Y-63734397D01*
X96847474Y-63694987D01*
X96740149Y-63663278D01*
X96663189Y-63644766D01*
X96580069Y-63631797D01*
X96476059Y-63623732D01*
X96359749Y-63620577D01*
X96239728Y-63622338D01*
X96124585Y-63629019D01*
X96022909Y-63640627D01*
X96000384Y-63644338D01*
X95776752Y-63697203D01*
X95569166Y-63772829D01*
X95378984Y-63869966D01*
X95207562Y-63987367D01*
X95056257Y-64123783D01*
X94926423Y-64277967D01*
X94819419Y-64448669D01*
X94736601Y-64634643D01*
X94679325Y-64834638D01*
X94673011Y-64865817D01*
X94658575Y-64971432D01*
X94650886Y-65095574D01*
X94649950Y-65227655D01*
X94655774Y-65357090D01*
X94668363Y-65473292D01*
X94672634Y-65499405D01*
X94716035Y-65681776D01*
X94781336Y-65871705D01*
X94864877Y-66061270D01*
X94962997Y-66242547D01*
X95072038Y-66407613D01*
X95122147Y-66472590D01*
X95172239Y-66534297D01*
X95180647Y-68711823D01*
X95221496Y-68799018D01*
X95278893Y-68902269D01*
X95346102Y-68983787D01*
X95429775Y-69051555D01*
X95434636Y-69054809D01*
X95450703Y-69066009D01*
X95464603Y-69076321D01*
X95477568Y-69085781D01*
X95490829Y-69094426D01*
X95505615Y-69102293D01*
X95523160Y-69109417D01*
X95544692Y-69115836D01*
X95571445Y-69121585D01*
X95604647Y-69126701D01*
X95645532Y-69131220D01*
X95695328Y-69135180D01*
X95755269Y-69138615D01*
X95826583Y-69141564D01*
X95910503Y-69144061D01*
X96008260Y-69146144D01*
X96121084Y-69147849D01*
X96250207Y-69149213D01*
X96396859Y-69150271D01*
X96562272Y-69151060D01*
X96747676Y-69151618D01*
X96954302Y-69151979D01*
X97183382Y-69152181D01*
X97436147Y-69152259D01*
X97713827Y-69152251D01*
X98017654Y-69152193D01*
X98348858Y-69152122D01*
X98708671Y-69152072D01*
X98721705Y-69152071D01*
X101784647Y-69151879D01*
X101868430Y-69117413D01*
X101989062Y-69053397D01*
X102087784Y-68969254D01*
X102165596Y-68864038D01*
X102193509Y-68810734D01*
X102232882Y-68726764D01*
X102236886Y-67564044D01*
X102236988Y-67534967D01*
X101642705Y-67534967D01*
X101642705Y-68481593D01*
X101606032Y-68518267D01*
X101556707Y-68548526D01*
X101498199Y-68556956D01*
X101441084Y-68543654D01*
X101402516Y-68516393D01*
X101366294Y-68477845D01*
X101363912Y-67954443D01*
X101057913Y-67954443D01*
X101057654Y-68085945D01*
X101057120Y-68201333D01*
X101056323Y-68297853D01*
X101055278Y-68372753D01*
X101053995Y-68423278D01*
X101052488Y-68446676D01*
X101029348Y-68504677D01*
X100985936Y-68541115D01*
X100924173Y-68554440D01*
X100918976Y-68554466D01*
X100874154Y-68549828D01*
X100839599Y-68538943D01*
X100834587Y-68535789D01*
X100822865Y-68526217D01*
X100812824Y-68515359D01*
X100804335Y-68500967D01*
X100797266Y-68480793D01*
X100791489Y-68452590D01*
X100786873Y-68414108D01*
X100783287Y-68363100D01*
X100780603Y-68297318D01*
X100778688Y-68214514D01*
X100777414Y-68112440D01*
X100776650Y-67988847D01*
X100776266Y-67841487D01*
X100776132Y-67668113D01*
X100776119Y-67538638D01*
X100462352Y-67538638D01*
X100462352Y-68481593D01*
X100425679Y-68518267D01*
X100375989Y-68548660D01*
X100317612Y-68556147D01*
X100261055Y-68540729D01*
X100230085Y-68518267D01*
X100193411Y-68481593D01*
X100193411Y-67538638D01*
X100193648Y-67333279D01*
X100194349Y-67149836D01*
X100195495Y-66989403D01*
X100197072Y-66853077D01*
X100199061Y-66741954D01*
X100201446Y-66657129D01*
X100204211Y-66599698D01*
X100204252Y-66599313D01*
X99879647Y-66599313D01*
X99879647Y-67525815D01*
X99879612Y-67719325D01*
X99879421Y-67885201D01*
X99878944Y-68025691D01*
X99878051Y-68143042D01*
X99876611Y-68239504D01*
X99874494Y-68317324D01*
X99871570Y-68378749D01*
X99867710Y-68426029D01*
X99862782Y-68461412D01*
X99856657Y-68487144D01*
X99849205Y-68505475D01*
X99840295Y-68518653D01*
X99829797Y-68528925D01*
X99821177Y-68535789D01*
X99780323Y-68551754D01*
X99727223Y-68553950D01*
X99675702Y-68543211D01*
X99644093Y-68525117D01*
X99618316Y-68488646D01*
X99603276Y-68446676D01*
X99601769Y-68423281D01*
X99600486Y-68372758D01*
X99599440Y-68297860D01*
X99598644Y-68201341D01*
X99598110Y-68085955D01*
X99597851Y-67954454D01*
X99597880Y-67809593D01*
X99598209Y-67654125D01*
X99598852Y-67490804D01*
X99598852Y-67490790D01*
X99600459Y-67158050D01*
X99295152Y-67158050D01*
X99294677Y-67322144D01*
X99293860Y-67513459D01*
X99293645Y-67560730D01*
X99289470Y-68477845D01*
X99253248Y-68516393D01*
X99205245Y-68547548D01*
X99147122Y-68557052D01*
X99089458Y-68544807D01*
X99049732Y-68518267D01*
X99013058Y-68481593D01*
X99013058Y-68096016D01*
X98400999Y-68096016D01*
X98394747Y-68195553D01*
X98365693Y-68291316D01*
X98314785Y-68378950D01*
X98242966Y-68454099D01*
X98151182Y-68512408D01*
X98119866Y-68525977D01*
X98015873Y-68551066D01*
X97908150Y-68546532D01*
X97823452Y-68523108D01*
X97735424Y-68476284D01*
X97656800Y-68408440D01*
X97596714Y-68327853D01*
X97586489Y-68308411D01*
X97567388Y-68251361D01*
X97554599Y-68176703D01*
X97551510Y-68139553D01*
X97550961Y-68121647D01*
X96629582Y-68121647D01*
X96623861Y-68217356D01*
X96604151Y-68294298D01*
X96566632Y-68361806D01*
X96507485Y-68429212D01*
X96501144Y-68435423D01*
X96418428Y-68496502D01*
X96322579Y-68535637D01*
X96220473Y-68551711D01*
X96118986Y-68543604D01*
X96028974Y-68512264D01*
X95929690Y-68446991D01*
X95854887Y-68365821D01*
X95805636Y-68270435D01*
X95783011Y-68162516D01*
X95781570Y-68124475D01*
X95786254Y-68052652D01*
X95798525Y-67989264D01*
X95806496Y-67965916D01*
X95861780Y-67869198D01*
X95934818Y-67792758D01*
X96021238Y-67737509D01*
X96116668Y-67704361D01*
X96216737Y-67694227D01*
X96317073Y-67708016D01*
X96413304Y-67746642D01*
X96501058Y-67811015D01*
X96509632Y-67819335D01*
X96566693Y-67883693D01*
X96603155Y-67946433D01*
X96622815Y-68017124D01*
X96629470Y-68105337D01*
X96629582Y-68121647D01*
X97550961Y-68121647D01*
X97549627Y-68078168D01*
X97553997Y-68032733D01*
X97567389Y-67989523D01*
X97592568Y-67934809D01*
X97592935Y-67934063D01*
X97654065Y-67840399D01*
X97731666Y-67768932D01*
X97821415Y-67720397D01*
X97918992Y-67695530D01*
X98020075Y-67695065D01*
X98120341Y-67719738D01*
X98215470Y-67770284D01*
X98273492Y-67818319D01*
X98341317Y-67903044D01*
X98383504Y-67997061D01*
X98400999Y-68096016D01*
X99013058Y-68096016D01*
X99013058Y-67534967D01*
X99013081Y-67343410D01*
X99013194Y-67179493D01*
X99013466Y-67040976D01*
X99013964Y-66925616D01*
X99014759Y-66831172D01*
X99015094Y-66809202D01*
X98413677Y-66809202D01*
X98413539Y-66927579D01*
X98412858Y-66981211D01*
X98411126Y-67086186D01*
X98409312Y-67165499D01*
X98406926Y-67223367D01*
X98403480Y-67264006D01*
X98398485Y-67291633D01*
X98391451Y-67310467D01*
X98381890Y-67324722D01*
X98371719Y-67336063D01*
X98335497Y-67374588D01*
X97090513Y-67374588D01*
X96868746Y-67374571D01*
X96674928Y-67374491D01*
X96507124Y-67374305D01*
X96363402Y-67373967D01*
X96241826Y-67373434D01*
X96140463Y-67372662D01*
X96057379Y-67371607D01*
X95990640Y-67370224D01*
X95938313Y-67368469D01*
X95898464Y-67366299D01*
X95869158Y-67363669D01*
X95848462Y-67360536D01*
X95834442Y-67356854D01*
X95825164Y-67352580D01*
X95818695Y-67347671D01*
X95816480Y-67345539D01*
X95801656Y-67327740D01*
X95790279Y-67305185D01*
X95781990Y-67274136D01*
X95776428Y-67230852D01*
X95773233Y-67171593D01*
X95772045Y-67092621D01*
X95772505Y-66990196D01*
X95773643Y-66900588D01*
X95775307Y-66795332D01*
X95777099Y-66715795D01*
X95779477Y-66657815D01*
X95782900Y-66617230D01*
X95787826Y-66589880D01*
X95794715Y-66571601D01*
X95804023Y-66558232D01*
X95812322Y-66549470D01*
X95846351Y-66515470D01*
X97071363Y-66511479D01*
X97298242Y-66510707D01*
X97497122Y-66510059D01*
X97669887Y-66509672D01*
X97818418Y-66509684D01*
X97944601Y-66510233D01*
X98050318Y-66511457D01*
X98137453Y-66513494D01*
X98207888Y-66516483D01*
X98263507Y-66520561D01*
X98306194Y-66525866D01*
X98337831Y-66532537D01*
X98360303Y-66540711D01*
X98375491Y-66550526D01*
X98385281Y-66562121D01*
X98391554Y-66575634D01*
X98396194Y-66591202D01*
X98401078Y-66608940D01*
X98407392Y-66648168D01*
X98411610Y-66715493D01*
X98413677Y-66809202D01*
X99015094Y-66809202D01*
X99015917Y-66755402D01*
X99017507Y-66696065D01*
X99019597Y-66650919D01*
X99022256Y-66617721D01*
X99025552Y-66594232D01*
X99029554Y-66578209D01*
X99034329Y-66567410D01*
X99039946Y-66559594D01*
X99042882Y-66556329D01*
X99089826Y-66525510D01*
X99149421Y-66512751D01*
X99208716Y-66520691D01*
X99211907Y-66521855D01*
X99228873Y-66528642D01*
X99243446Y-66536599D01*
X99255797Y-66547895D01*
X99266097Y-66564701D01*
X99274517Y-66589189D01*
X99281227Y-66623530D01*
X99286398Y-66669894D01*
X99290202Y-66730453D01*
X99292808Y-66807377D01*
X99294388Y-66902837D01*
X99295112Y-67019004D01*
X99295152Y-67158050D01*
X99600459Y-67158050D01*
X99603235Y-66583522D01*
X99637268Y-66549496D01*
X99685313Y-66520704D01*
X99743224Y-66513013D01*
X99800131Y-66526007D01*
X99843587Y-66557392D01*
X99879647Y-66599313D01*
X100204252Y-66599313D01*
X100207338Y-66570757D01*
X100208238Y-66567979D01*
X100231853Y-66544868D01*
X100270064Y-66524882D01*
X100275473Y-66522979D01*
X100330792Y-66515165D01*
X100385812Y-66524147D01*
X100429915Y-66547148D01*
X100447526Y-66567979D01*
X100450748Y-66589081D01*
X100453612Y-66638967D01*
X100456101Y-66716542D01*
X100458198Y-66820710D01*
X100459887Y-66950375D01*
X100461150Y-67104441D01*
X100461972Y-67281812D01*
X100462335Y-67481391D01*
X100462352Y-67538638D01*
X100776119Y-67538638D01*
X100776117Y-67525815D01*
X100776117Y-66599313D01*
X100812176Y-66557392D01*
X100857958Y-66525009D01*
X100915138Y-66512914D01*
X100972844Y-66521521D01*
X101018496Y-66549496D01*
X101052529Y-66583522D01*
X101056912Y-67490790D01*
X101057554Y-67654112D01*
X101057884Y-67809581D01*
X101057913Y-67954443D01*
X101363912Y-67954443D01*
X101362119Y-67560730D01*
X101361248Y-67362957D01*
X101360681Y-67192896D01*
X101360589Y-67048374D01*
X101361144Y-66927222D01*
X101362515Y-66827268D01*
X101364874Y-66746342D01*
X101368392Y-66682272D01*
X101373239Y-66632887D01*
X101379586Y-66596017D01*
X101387604Y-66569490D01*
X101397463Y-66551136D01*
X101409336Y-66538784D01*
X101423391Y-66530262D01*
X101439801Y-66523400D01*
X101443857Y-66521855D01*
X101502733Y-66512619D01*
X101562667Y-66524238D01*
X101610711Y-66554071D01*
X101612882Y-66556329D01*
X101618916Y-66563519D01*
X101624077Y-66572643D01*
X101628431Y-66585943D01*
X101632049Y-66605661D01*
X101634998Y-66634038D01*
X101637346Y-66673315D01*
X101639161Y-66725734D01*
X101640513Y-66793538D01*
X101641469Y-66878967D01*
X101642097Y-66984263D01*
X101642467Y-67111668D01*
X101642646Y-67263423D01*
X101642702Y-67441771D01*
X101642705Y-67534967D01*
X102236988Y-67534967D01*
X102237664Y-67342861D01*
X102238277Y-67149460D01*
X102238585Y-66981741D01*
X102238445Y-66837606D01*
X102237715Y-66714954D01*
X102236253Y-66611686D01*
X102233918Y-66525701D01*
X102230566Y-66454901D01*
X102226056Y-66397184D01*
X102220247Y-66350452D01*
X102212996Y-66312605D01*
X102204160Y-66281542D01*
X102193599Y-66255165D01*
X102181169Y-66231373D01*
X102166730Y-66208066D01*
X102150138Y-66183146D01*
X102142739Y-66172062D01*
X102075475Y-66087316D01*
X101994990Y-66019437D01*
X101893260Y-65961733D01*
X101886783Y-65958672D01*
X101799588Y-65917823D01*
X98744117Y-65913842D01*
X98388669Y-65913383D01*
X98061857Y-65912976D01*
X97762437Y-65912633D01*
X97489164Y-65912363D01*
X97240793Y-65912177D01*
X97016077Y-65912084D01*
X96813772Y-65912096D01*
X96632633Y-65912221D01*
X96471414Y-65912471D01*
X96328870Y-65912856D01*
X96203756Y-65913385D01*
X96094827Y-65914069D01*
X96000837Y-65914919D01*
X95920541Y-65915944D01*
X95852694Y-65917155D01*
X95796051Y-65918561D01*
X95749366Y-65920174D01*
X95711394Y-65922003D01*
X95680890Y-65924058D01*
X95656608Y-65926351D01*
X95637304Y-65928890D01*
X95621733Y-65931686D01*
X95608648Y-65934749D01*
X95596804Y-65938091D01*
X95591529Y-65939693D01*
X95533814Y-65959823D01*
X95481336Y-65982187D01*
X95450176Y-65999079D01*
X95405940Y-66028632D01*
X95348874Y-65930264D01*
X95258215Y-65751140D01*
X95191097Y-65568483D01*
X95148290Y-65386020D01*
X95130566Y-65207475D01*
X95138695Y-65036573D01*
X95149896Y-64968503D01*
X95198463Y-64799283D01*
X95272142Y-64645580D01*
X95369927Y-64508388D01*
X95490817Y-64388697D01*
X95633807Y-64287499D01*
X95797895Y-64205786D01*
X95982077Y-64144549D01*
X95984009Y-64144045D01*
X96086806Y-64124078D01*
X96204721Y-64112164D01*
X96328978Y-64108293D01*
X96450802Y-64112452D01*
X96561417Y-64124630D01*
X96652050Y-64144817D01*
X96652352Y-64144911D01*
X96730702Y-64171814D01*
X96810022Y-64204514D01*
X96894060Y-64245059D01*
X96986560Y-64295499D01*
X97091267Y-64357882D01*
X97211927Y-64434258D01*
X97352285Y-64526675D01*
X97362058Y-64533206D01*
X97519060Y-64636570D01*
X97656147Y-64722964D01*
X97776757Y-64794064D01*
X97884327Y-64851547D01*
X97982292Y-64897089D01*
X98074089Y-64932366D01*
X98163156Y-64959056D01*
X98252927Y-64978835D01*
X98287883Y-64984878D01*
X98386482Y-64994552D01*
X98499606Y-64995761D01*
X98615262Y-64989056D01*
X98721460Y-64974990D01*
X98779291Y-64962281D01*
X98963517Y-64898534D01*
X99151579Y-64805515D01*
X99342997Y-64683522D01*
X99537290Y-64532852D01*
X99684365Y-64401439D01*
X99731077Y-64357794D01*
X99769108Y-64323058D01*
X99793669Y-64301560D01*
X99800289Y-64296705D01*
X99814102Y-64304694D01*
X99844115Y-64325146D01*
X99867298Y-64341690D01*
X99966211Y-64396018D01*
X100082924Y-64430746D01*
X100212210Y-64445321D01*
X100348841Y-64439186D01*
X100487589Y-64411786D01*
X100498432Y-64408714D01*
X100661124Y-64350035D01*
X100836133Y-64264903D01*
X101022802Y-64153784D01*
X101220470Y-64017143D01*
X101428480Y-63855445D01*
X101646174Y-63669156D01*
X101660947Y-63655445D01*
X100399607Y-63655445D01*
X100380233Y-63744306D01*
X100339000Y-63818858D01*
X100280574Y-63876771D01*
X100209621Y-63915712D01*
X100130809Y-63933347D01*
X100048803Y-63927344D01*
X99968270Y-63895370D01*
X99946978Y-63881697D01*
X99880822Y-63818728D01*
X99836633Y-63740955D01*
X99818120Y-63655216D01*
X99817790Y-63643514D01*
X99823791Y-63568021D01*
X99846027Y-63506442D01*
X99888765Y-63445825D01*
X99955409Y-63386465D01*
X100030160Y-63352316D01*
X100108478Y-63341514D01*
X100185821Y-63352197D01*
X100257650Y-63382502D01*
X100319423Y-63430564D01*
X100366601Y-63494522D01*
X100394642Y-63572511D01*
X100399607Y-63655445D01*
X101660947Y-63655445D01*
X101834281Y-63494574D01*
X101224352Y-63494574D01*
X101213086Y-63521408D01*
X101185965Y-63553462D01*
X101153006Y-63581002D01*
X101124227Y-63594295D01*
X101121550Y-63594470D01*
X101106274Y-63584204D01*
X101072242Y-63554837D01*
X101021712Y-63508513D01*
X100956940Y-63447379D01*
X100880183Y-63373581D01*
X100793698Y-63289263D01*
X100699742Y-63196572D01*
X100630528Y-63127647D01*
X100514107Y-63011157D01*
X100417352Y-62913754D01*
X100338766Y-62833430D01*
X100276853Y-62768173D01*
X100230116Y-62715974D01*
X100197059Y-62674822D01*
X100176186Y-62642708D01*
X100166001Y-62617621D01*
X100165007Y-62597551D01*
X100171708Y-62580488D01*
X100184607Y-62564422D01*
X100200055Y-62549365D01*
X100239484Y-62524267D01*
X100271025Y-62523900D01*
X100288365Y-62536131D01*
X100323456Y-62567159D01*
X100373703Y-62614338D01*
X100436506Y-62675025D01*
X100509271Y-62746576D01*
X100589399Y-62826345D01*
X100674293Y-62911689D01*
X100761358Y-62999964D01*
X100847995Y-63088526D01*
X100931607Y-63174729D01*
X101009598Y-63255930D01*
X101079371Y-63329485D01*
X101138329Y-63392748D01*
X101183874Y-63443077D01*
X101213410Y-63477827D01*
X101224339Y-63494353D01*
X101224352Y-63494574D01*
X101834281Y-63494574D01*
X101872891Y-63458741D01*
X101951326Y-63382365D01*
X102040520Y-63292087D01*
X102109132Y-63215919D01*
X102121274Y-63199957D01*
X101508235Y-63199957D01*
X101495825Y-63245809D01*
X101464251Y-63279776D01*
X101421999Y-63296280D01*
X101377552Y-63289740D01*
X101374226Y-63288091D01*
X101355952Y-63273381D01*
X101319285Y-63239522D01*
X101266596Y-63188853D01*
X101200259Y-63123713D01*
X101122644Y-63046440D01*
X101036124Y-62959375D01*
X100943072Y-62864856D01*
X100891911Y-62812533D01*
X100797578Y-62715224D01*
X100710074Y-62623796D01*
X100631561Y-62540591D01*
X100564198Y-62467955D01*
X100510148Y-62408231D01*
X100471571Y-62363764D01*
X100450630Y-62336897D01*
X100447411Y-62330419D01*
X100459659Y-62295694D01*
X100489195Y-62261539D01*
X100525204Y-62238686D01*
X100543716Y-62234823D01*
X100561575Y-62245198D01*
X100597412Y-62274561D01*
X100648587Y-62320271D01*
X100712458Y-62379686D01*
X100786385Y-62450164D01*
X100867730Y-62529062D01*
X100953850Y-62613740D01*
X101042107Y-62701554D01*
X101129859Y-62789864D01*
X101214467Y-62876028D01*
X101293291Y-62957403D01*
X101363690Y-63031347D01*
X101423024Y-63095220D01*
X101468653Y-63146378D01*
X101497937Y-63182180D01*
X101508235Y-63199957D01*
X102121274Y-63199957D01*
X102159858Y-63149238D01*
X102195395Y-63087418D01*
X102218439Y-63025834D01*
X102231688Y-62959862D01*
X102234740Y-62924167D01*
X101794558Y-62924167D01*
X101775194Y-62968403D01*
X101750051Y-62993088D01*
X101734968Y-63003601D01*
X101719451Y-63009244D01*
X101701473Y-63008375D01*
X101679006Y-62999351D01*
X101650024Y-62980528D01*
X101612498Y-62950263D01*
X101564401Y-62906912D01*
X101503707Y-62848832D01*
X101428388Y-62774380D01*
X101336416Y-62681913D01*
X101225764Y-62569787D01*
X101217600Y-62561498D01*
X101122224Y-62464376D01*
X101032766Y-62372743D01*
X100951550Y-62289018D01*
X100880904Y-62215624D01*
X100823151Y-62154981D01*
X100780618Y-62109512D01*
X100755629Y-62081637D01*
X100750440Y-62075054D01*
X100735884Y-62047921D01*
X100738479Y-62026111D01*
X100756640Y-61998644D01*
X100792696Y-61966756D01*
X100828571Y-61953450D01*
X100840701Y-61954009D01*
X100855802Y-61959572D01*
X100875893Y-61971958D01*
X100902994Y-61992988D01*
X100939122Y-62024483D01*
X100986296Y-62068262D01*
X101046536Y-62126146D01*
X101121860Y-62199955D01*
X101214287Y-62291510D01*
X101317401Y-62394215D01*
X101413449Y-62490444D01*
X101503367Y-62581321D01*
X101584828Y-62664436D01*
X101655503Y-62737379D01*
X101713066Y-62797740D01*
X101755190Y-62843110D01*
X101779547Y-62871077D01*
X101784321Y-62877755D01*
X101794558Y-62924167D01*
X102234740Y-62924167D01*
X102237534Y-62891508D01*
X102237400Y-62777205D01*
X102223368Y-62675067D01*
X102193019Y-62574159D01*
X102143930Y-62463541D01*
X102141906Y-62459486D01*
X102057065Y-62311126D01*
X101954011Y-62165871D01*
X101836441Y-62026982D01*
X101708051Y-61897721D01*
X101572536Y-61781348D01*
X101433594Y-61681123D01*
X101294920Y-61600308D01*
X101160211Y-61542163D01*
X101074161Y-61517544D01*
X101016556Y-61509137D01*
X100944572Y-61504517D01*
X100873578Y-61504660D01*
G04 #@! TD*
%LPC*%
D12*
G04 #@! TO.C,J2*
X91800000Y-63700000D03*
X91800000Y-66240000D03*
X91800000Y-68780000D03*
X91800000Y-71320000D03*
X91800000Y-73860000D03*
D13*
X91800000Y-76400000D03*
G04 #@! TD*
D14*
G04 #@! TO.C,J1*
X111500000Y-70000000D03*
X104500000Y-70000000D03*
G04 #@! TD*
M02*
