G04 #@! TF.GenerationSoftware,KiCad,Pcbnew,(5.0.0-3-g5ebb6b6)*
G04 #@! TF.CreationDate,2018-08-26T23:18:38+02:00*
G04 #@! TF.ProjectId,Pmod-I2S,506D6F642D4932532E6B696361645F70,rev?*
G04 #@! TF.SameCoordinates,Original*
G04 #@! TF.FileFunction,Copper,L1,Top,Signal*
G04 #@! TF.FilePolarity,Positive*
%FSLAX46Y46*%
G04 Gerber Fmt 4.6, Leading zero omitted, Abs format (unit mm)*
G04 Created by KiCad (PCBNEW (5.0.0-3-g5ebb6b6)) date Sunday, 26 August 2018 at 23:18:38*
%MOMM*%
%LPD*%
G01*
G04 APERTURE LIST*
G04 #@! TA.AperFunction,SMDPad,CuDef*
%ADD10R,1.500000X1.250000*%
G04 #@! TD*
G04 #@! TA.AperFunction,SMDPad,CuDef*
%ADD11R,1.250000X1.500000*%
G04 #@! TD*
G04 #@! TA.AperFunction,ComponentPad*
%ADD12O,1.700000X1.700000*%
G04 #@! TD*
G04 #@! TA.AperFunction,ComponentPad*
%ADD13R,1.700000X1.700000*%
G04 #@! TD*
G04 #@! TA.AperFunction,SMDPad,CuDef*
%ADD14R,0.500000X0.900000*%
G04 #@! TD*
G04 #@! TA.AperFunction,SMDPad,CuDef*
%ADD15R,2.200000X2.800000*%
G04 #@! TD*
G04 #@! TA.AperFunction,SMDPad,CuDef*
%ADD16R,2.800000X2.800000*%
G04 #@! TD*
G04 #@! TA.AperFunction,SMDPad,CuDef*
%ADD17R,0.500000X0.600000*%
G04 #@! TD*
G04 #@! TA.AperFunction,SMDPad,CuDef*
%ADD18R,0.600000X0.500000*%
G04 #@! TD*
G04 #@! TA.AperFunction,SMDPad,CuDef*
%ADD19R,0.300000X1.400000*%
G04 #@! TD*
G04 #@! TA.AperFunction,SMDPad,CuDef*
%ADD20R,0.400000X0.600000*%
G04 #@! TD*
G04 #@! TA.AperFunction,ViaPad*
%ADD21C,0.685800*%
G04 #@! TD*
G04 #@! TA.AperFunction,Conductor*
%ADD22C,0.254000*%
G04 #@! TD*
G04 #@! TA.AperFunction,Conductor*
%ADD23C,0.457200*%
G04 #@! TD*
G04 #@! TA.AperFunction,Conductor*
%ADD24C,0.304800*%
G04 #@! TD*
G04 APERTURE END LIST*
D10*
G04 #@! TO.P,C7,2*
G04 #@! TO.N,Net-(C7-Pad2)*
X102500000Y-62500000D03*
G04 #@! TO.P,C7,1*
G04 #@! TO.N,Net-(C7-Pad1)*
X105000000Y-62500000D03*
G04 #@! TD*
G04 #@! TO.P,C6,1*
G04 #@! TO.N,Net-(C6-Pad1)*
X105000000Y-77000000D03*
G04 #@! TO.P,C6,2*
G04 #@! TO.N,Net-(C6-Pad2)*
X102500000Y-77000000D03*
G04 #@! TD*
D11*
G04 #@! TO.P,C5,2*
G04 #@! TO.N,GND*
X95500000Y-74500000D03*
G04 #@! TO.P,C5,1*
G04 #@! TO.N,Net-(C5-Pad1)*
X95500000Y-72000000D03*
G04 #@! TD*
D10*
G04 #@! TO.P,C4,1*
G04 #@! TO.N,Net-(C4-Pad1)*
X96000000Y-62000000D03*
G04 #@! TO.P,C4,2*
G04 #@! TO.N,GND*
X98500000Y-62000000D03*
G04 #@! TD*
D11*
G04 #@! TO.P,C2,2*
G04 #@! TO.N,GND*
X97500000Y-74500000D03*
G04 #@! TO.P,C2,1*
G04 #@! TO.N,Net-(C2-Pad1)*
X97500000Y-72000000D03*
G04 #@! TD*
D12*
G04 #@! TO.P,J2,6*
G04 #@! TO.N,/MCLK*
X91800000Y-63700000D03*
G04 #@! TO.P,J2,5*
G04 #@! TO.N,/LRCK*
X91800000Y-66240000D03*
G04 #@! TO.P,J2,4*
G04 #@! TO.N,/SCLK*
X91800000Y-68780000D03*
G04 #@! TO.P,J2,3*
G04 #@! TO.N,/SDIN*
X91800000Y-71320000D03*
G04 #@! TO.P,J2,2*
G04 #@! TO.N,GND*
X91800000Y-73860000D03*
D13*
G04 #@! TO.P,J2,1*
G04 #@! TO.N,/VCC*
X91800000Y-76400000D03*
G04 #@! TD*
D14*
G04 #@! TO.P,L1,2*
G04 #@! TO.N,Net-(C2-Pad1)*
X99000000Y-77000000D03*
G04 #@! TO.P,L1,1*
G04 #@! TO.N,/VCC*
X97500000Y-77000000D03*
G04 #@! TD*
D15*
G04 #@! TO.P,J1,3*
G04 #@! TO.N,Net-(J1-Pad3)*
X110600000Y-73700000D03*
G04 #@! TO.P,J1,1*
G04 #@! TO.N,GND*
X112600000Y-66300000D03*
D16*
G04 #@! TO.P,J1,2*
G04 #@! TO.N,Net-(J1-Pad2)*
X103200000Y-66300000D03*
G04 #@! TD*
D17*
G04 #@! TO.P,C1,2*
G04 #@! TO.N,GND*
X95500000Y-77000000D03*
G04 #@! TO.P,C1,1*
G04 #@! TO.N,/VCC*
X95500000Y-78100000D03*
G04 #@! TD*
D18*
G04 #@! TO.P,C3,1*
G04 #@! TO.N,Net-(C2-Pad1)*
X99950000Y-75000000D03*
G04 #@! TO.P,C3,2*
G04 #@! TO.N,GND*
X101050000Y-75000000D03*
G04 #@! TD*
D19*
G04 #@! TO.P,IC1,10*
G04 #@! TO.N,Net-(C6-Pad2)*
X97500000Y-69000000D03*
G04 #@! TO.P,IC1,9*
G04 #@! TO.N,Net-(C2-Pad1)*
X97000000Y-69000000D03*
G04 #@! TO.P,IC1,8*
G04 #@! TO.N,GND*
X96500000Y-69000000D03*
G04 #@! TO.P,IC1,7*
G04 #@! TO.N,Net-(C7-Pad2)*
X96000000Y-69000000D03*
G04 #@! TO.P,IC1,6*
G04 #@! TO.N,Net-(C5-Pad1)*
X95500000Y-69000000D03*
G04 #@! TO.P,IC1,5*
G04 #@! TO.N,Net-(C4-Pad1)*
X95500000Y-64600000D03*
G04 #@! TO.P,IC1,4*
G04 #@! TO.N,/MCLK*
X96000000Y-64600000D03*
G04 #@! TO.P,IC1,3*
G04 #@! TO.N,/LRCK*
X96500000Y-64600000D03*
G04 #@! TO.P,IC1,2*
G04 #@! TO.N,/SCLK*
X97000000Y-64600000D03*
G04 #@! TO.P,IC1,1*
G04 #@! TO.N,/SDIN*
X97500000Y-64600000D03*
G04 #@! TD*
D20*
G04 #@! TO.P,R1,2*
G04 #@! TO.N,GND*
X107950000Y-77000000D03*
G04 #@! TO.P,R1,1*
G04 #@! TO.N,Net-(C6-Pad1)*
X107050000Y-77000000D03*
G04 #@! TD*
G04 #@! TO.P,R2,1*
G04 #@! TO.N,Net-(C7-Pad1)*
X107100000Y-62500000D03*
G04 #@! TO.P,R2,2*
G04 #@! TO.N,GND*
X108000000Y-62500000D03*
G04 #@! TD*
G04 #@! TO.P,R3,2*
G04 #@! TO.N,Net-(C6-Pad1)*
X107100000Y-75500000D03*
G04 #@! TO.P,R3,1*
G04 #@! TO.N,Net-(J1-Pad3)*
X108000000Y-75500000D03*
G04 #@! TD*
G04 #@! TO.P,R4,1*
G04 #@! TO.N,Net-(J1-Pad2)*
X108000000Y-64000000D03*
G04 #@! TO.P,R4,2*
G04 #@! TO.N,Net-(C7-Pad1)*
X107100000Y-64000000D03*
G04 #@! TD*
D21*
G04 #@! TO.N,GND*
X105000000Y-74500000D03*
X100000000Y-66500000D03*
X109500000Y-66500000D03*
X94000000Y-62500000D03*
X112500000Y-77500000D03*
X112500000Y-62500000D03*
X108000000Y-70000000D03*
X100500000Y-77000000D03*
X96250000Y-70500000D03*
X94000000Y-76500000D03*
X101250000Y-73750000D03*
X98750000Y-74500000D03*
X109500000Y-77000000D03*
X109500000Y-62500000D03*
X100250000Y-62000000D03*
G04 #@! TD*
D22*
G04 #@! TO.N,GND*
X96500000Y-70250000D02*
X96250000Y-70500000D01*
X96500000Y-69000000D02*
X96500000Y-70250000D01*
D23*
G04 #@! TO.N,/VCC*
X97500000Y-77000000D02*
X97500000Y-77500000D01*
X97500000Y-77500000D02*
X96900000Y-78100000D01*
X96900000Y-78100000D02*
X95500000Y-78100000D01*
X91800000Y-76400000D02*
X91800000Y-77707200D01*
X91800000Y-77707200D02*
X92192800Y-78100000D01*
X92192800Y-78100000D02*
X95500000Y-78100000D01*
G04 #@! TO.N,Net-(C2-Pad1)*
X97500000Y-72000000D02*
X98582200Y-72000000D01*
X98582200Y-72000000D02*
X99950000Y-73367800D01*
X99950000Y-73367800D02*
X99950000Y-75000000D01*
X99000000Y-77000000D02*
X99000000Y-75950000D01*
X99000000Y-75950000D02*
X99950000Y-75000000D01*
D22*
X97000000Y-71500000D02*
X97500000Y-72000000D01*
X97000000Y-69000000D02*
X97000000Y-71500000D01*
D24*
G04 #@! TO.N,Net-(C4-Pad1)*
X95500000Y-64600000D02*
X95500000Y-62500000D01*
X95500000Y-62500000D02*
X96000000Y-62000000D01*
G04 #@! TO.N,Net-(C5-Pad1)*
X95500000Y-69000000D02*
X95500000Y-72000000D01*
G04 #@! TO.N,Net-(C6-Pad1)*
X107050000Y-77000000D02*
X107050000Y-75550000D01*
X107050000Y-75550000D02*
X107100000Y-75500000D01*
X105000000Y-77000000D02*
X107050000Y-77000000D01*
G04 #@! TO.N,Net-(C6-Pad2)*
X98250000Y-69000000D02*
X97505601Y-69000000D01*
X102500000Y-73250000D02*
X98250000Y-69000000D01*
X102500000Y-77000000D02*
X102500000Y-73250000D01*
G04 #@! TO.N,Net-(C7-Pad2)*
X96000000Y-69000000D02*
X96000001Y-67995199D01*
X96004801Y-67995199D02*
X101500000Y-62500000D01*
X96000001Y-67995199D02*
X96004801Y-67995199D01*
X101500000Y-62500000D02*
X102500000Y-62500000D01*
G04 #@! TO.N,Net-(C7-Pad1)*
X107100000Y-62500000D02*
X107100000Y-64000000D01*
X105000000Y-62500000D02*
X107100000Y-62500000D01*
G04 #@! TO.N,/MCLK*
X92649999Y-64549999D02*
X91800000Y-63700000D01*
X94100000Y-66000000D02*
X92649999Y-64549999D01*
X95413632Y-66000000D02*
X94100000Y-66000000D01*
X96000000Y-64600000D02*
X95999999Y-65413633D01*
X95999999Y-65413633D02*
X95413632Y-66000000D01*
G04 #@! TO.N,/LRCK*
X96500000Y-64600000D02*
X96500000Y-65560224D01*
X96500000Y-65560224D02*
X95560224Y-66500000D01*
X92000000Y-66500000D02*
X91800000Y-66300000D01*
X95560224Y-66500000D02*
X92000000Y-66500000D01*
X91800000Y-66300000D02*
X91800000Y-66240000D01*
G04 #@! TO.N,/SCLK*
X97000000Y-64600000D02*
X97000000Y-65706816D01*
X97000000Y-65706816D02*
X95706816Y-67000000D01*
X95706816Y-67000000D02*
X94000000Y-67000000D01*
X94000000Y-67000000D02*
X92000000Y-69000000D01*
X92000000Y-69000000D02*
X92000000Y-68980000D01*
X92000000Y-68980000D02*
X91800000Y-68780000D01*
G04 #@! TO.N,/SDIN*
X97500000Y-64600000D02*
X97500000Y-65853408D01*
X97500000Y-65853408D02*
X95853408Y-67500000D01*
X95853408Y-67500000D02*
X95000000Y-67500000D01*
X92649999Y-69850001D02*
X92649999Y-70470001D01*
X92649999Y-70470001D02*
X91800000Y-71320000D01*
X95000000Y-67500000D02*
X92649999Y-69850001D01*
G04 #@! TO.N,Net-(J1-Pad2)*
X108000000Y-64000000D02*
X108000000Y-64604800D01*
X108000000Y-64604800D02*
X106304800Y-66300000D01*
X106304800Y-66300000D02*
X103200000Y-66300000D01*
G04 #@! TO.N,Net-(J1-Pad3)*
X108000000Y-75500000D02*
X108000000Y-74895200D01*
X108000000Y-74895200D02*
X109195200Y-73700000D01*
X109195200Y-73700000D02*
X110600000Y-73700000D01*
G04 #@! TD*
D22*
G04 #@! TO.N,GND*
G36*
X114290000Y-64665051D02*
X114238327Y-64540301D01*
X114059698Y-64361673D01*
X113826309Y-64265000D01*
X112885750Y-64265000D01*
X112727000Y-64423750D01*
X112727000Y-66173000D01*
X112747000Y-66173000D01*
X112747000Y-66427000D01*
X112727000Y-66427000D01*
X112727000Y-68176250D01*
X112885750Y-68335000D01*
X113826309Y-68335000D01*
X114059698Y-68238327D01*
X114238327Y-68059699D01*
X114290000Y-67934949D01*
X114290001Y-79290000D01*
X90710000Y-79290000D01*
X90710000Y-77849702D01*
X90950000Y-77897440D01*
X90957323Y-77897440D01*
X90986507Y-78044159D01*
X91061938Y-78157048D01*
X91177381Y-78329820D01*
X91249487Y-78378000D01*
X91521998Y-78650511D01*
X91570180Y-78722620D01*
X91855840Y-78913493D01*
X92107747Y-78963600D01*
X92107750Y-78963600D01*
X92192799Y-78980517D01*
X92277848Y-78963600D01*
X94950517Y-78963600D01*
X95002235Y-78998157D01*
X95250000Y-79047440D01*
X95750000Y-79047440D01*
X95997765Y-78998157D01*
X96049483Y-78963600D01*
X96814951Y-78963600D01*
X96900000Y-78980517D01*
X96985049Y-78963600D01*
X96985053Y-78963600D01*
X97236960Y-78913493D01*
X97522620Y-78722620D01*
X97570802Y-78650512D01*
X98050514Y-78170800D01*
X98122620Y-78122620D01*
X98279172Y-77888325D01*
X98292191Y-77907809D01*
X98502235Y-78048157D01*
X98750000Y-78097440D01*
X99250000Y-78097440D01*
X99497765Y-78048157D01*
X99707809Y-77907809D01*
X99848157Y-77697765D01*
X99897440Y-77450000D01*
X99897440Y-76550000D01*
X99863600Y-76379873D01*
X99863600Y-76307714D01*
X100279802Y-75891512D01*
X100497765Y-75848157D01*
X100511916Y-75838701D01*
X100623691Y-75885000D01*
X100764250Y-75885000D01*
X100923000Y-75726250D01*
X100923000Y-75125000D01*
X100903000Y-75125000D01*
X100903000Y-74875000D01*
X100923000Y-74875000D01*
X100923000Y-74273750D01*
X100813600Y-74164350D01*
X100813600Y-73452847D01*
X100830517Y-73367799D01*
X100813600Y-73282751D01*
X100813600Y-73282747D01*
X100763493Y-73030840D01*
X100572620Y-72745180D01*
X100500517Y-72697002D01*
X99253002Y-71449488D01*
X99204820Y-71377380D01*
X98919160Y-71186507D01*
X98753246Y-71153505D01*
X98723157Y-71002235D01*
X98582809Y-70792191D01*
X98372765Y-70651843D01*
X98125000Y-70602560D01*
X97762000Y-70602560D01*
X97762000Y-70325162D01*
X97897765Y-70298157D01*
X98107809Y-70157809D01*
X98182490Y-70046041D01*
X101712601Y-73576153D01*
X101712601Y-74214576D01*
X101709698Y-74211673D01*
X101476309Y-74115000D01*
X101335750Y-74115000D01*
X101177000Y-74273750D01*
X101177000Y-74875000D01*
X101197000Y-74875000D01*
X101197000Y-75125000D01*
X101177000Y-75125000D01*
X101177000Y-75726250D01*
X101335750Y-75885000D01*
X101340368Y-75885000D01*
X101292191Y-75917191D01*
X101151843Y-76127235D01*
X101102560Y-76375000D01*
X101102560Y-77625000D01*
X101151843Y-77872765D01*
X101292191Y-78082809D01*
X101502235Y-78223157D01*
X101750000Y-78272440D01*
X103250000Y-78272440D01*
X103497765Y-78223157D01*
X103707809Y-78082809D01*
X103750000Y-78019666D01*
X103792191Y-78082809D01*
X104002235Y-78223157D01*
X104250000Y-78272440D01*
X105750000Y-78272440D01*
X105997765Y-78223157D01*
X106207809Y-78082809D01*
X106348157Y-77872765D01*
X106365137Y-77787400D01*
X106436477Y-77787400D01*
X106602235Y-77898157D01*
X106850000Y-77947440D01*
X107250000Y-77947440D01*
X107497765Y-77898157D01*
X107511916Y-77888701D01*
X107623691Y-77935000D01*
X107691250Y-77935000D01*
X107850000Y-77776250D01*
X107850000Y-77538500D01*
X107897440Y-77300000D01*
X107897440Y-77127000D01*
X108050000Y-77127000D01*
X108050000Y-77776250D01*
X108208750Y-77935000D01*
X108276309Y-77935000D01*
X108509698Y-77838327D01*
X108688327Y-77659699D01*
X108785000Y-77426310D01*
X108785000Y-77285750D01*
X108626250Y-77127000D01*
X108050000Y-77127000D01*
X107897440Y-77127000D01*
X107897440Y-76853000D01*
X108050000Y-76853000D01*
X108050000Y-76873000D01*
X108626250Y-76873000D01*
X108785000Y-76714250D01*
X108785000Y-76573690D01*
X108688327Y-76340301D01*
X108626653Y-76278627D01*
X108657809Y-76257809D01*
X108798157Y-76047765D01*
X108847440Y-75800000D01*
X108847440Y-75200000D01*
X108841021Y-75167730D01*
X108861883Y-75146869D01*
X108901843Y-75347765D01*
X109042191Y-75557809D01*
X109252235Y-75698157D01*
X109500000Y-75747440D01*
X111700000Y-75747440D01*
X111947765Y-75698157D01*
X112157809Y-75557809D01*
X112298157Y-75347765D01*
X112347440Y-75100000D01*
X112347440Y-72300000D01*
X112298157Y-72052235D01*
X112157809Y-71842191D01*
X111947765Y-71701843D01*
X111700000Y-71652560D01*
X109500000Y-71652560D01*
X109252235Y-71701843D01*
X109042191Y-71842191D01*
X108901843Y-72052235D01*
X108852560Y-72300000D01*
X108852560Y-72981947D01*
X108627516Y-73132316D01*
X108583586Y-73198062D01*
X107498063Y-74283586D01*
X107432317Y-74327516D01*
X107281947Y-74552560D01*
X106900000Y-74552560D01*
X106652235Y-74601843D01*
X106442191Y-74742191D01*
X106301843Y-74952235D01*
X106252560Y-75200000D01*
X106252560Y-75522923D01*
X106247174Y-75550000D01*
X106252560Y-75577077D01*
X106252560Y-75800000D01*
X106262601Y-75850479D01*
X106262601Y-75999192D01*
X106207809Y-75917191D01*
X105997765Y-75776843D01*
X105750000Y-75727560D01*
X104250000Y-75727560D01*
X104002235Y-75776843D01*
X103792191Y-75917191D01*
X103750000Y-75980334D01*
X103707809Y-75917191D01*
X103497765Y-75776843D01*
X103287400Y-75734999D01*
X103287400Y-73327551D01*
X103302826Y-73250000D01*
X103287400Y-73172448D01*
X103241715Y-72942772D01*
X103067684Y-72682316D01*
X103001938Y-72638386D01*
X100068167Y-69704615D01*
X103015000Y-69704615D01*
X103015000Y-70295385D01*
X103241078Y-70841185D01*
X103658815Y-71258922D01*
X104204615Y-71485000D01*
X104795385Y-71485000D01*
X105341185Y-71258922D01*
X105758922Y-70841185D01*
X105985000Y-70295385D01*
X105985000Y-69704615D01*
X110015000Y-69704615D01*
X110015000Y-70295385D01*
X110241078Y-70841185D01*
X110658815Y-71258922D01*
X111204615Y-71485000D01*
X111795385Y-71485000D01*
X112341185Y-71258922D01*
X112758922Y-70841185D01*
X112985000Y-70295385D01*
X112985000Y-69704615D01*
X112758922Y-69158815D01*
X112341185Y-68741078D01*
X111795385Y-68515000D01*
X111204615Y-68515000D01*
X110658815Y-68741078D01*
X110241078Y-69158815D01*
X110015000Y-69704615D01*
X105985000Y-69704615D01*
X105758922Y-69158815D01*
X105341185Y-68741078D01*
X104795385Y-68515000D01*
X104204615Y-68515000D01*
X103658815Y-68741078D01*
X103241078Y-69158815D01*
X103015000Y-69704615D01*
X100068167Y-69704615D01*
X98861616Y-68498065D01*
X98817684Y-68432316D01*
X98557228Y-68258285D01*
X98327552Y-68212600D01*
X98327551Y-68212600D01*
X98278099Y-68202763D01*
X98248157Y-68052235D01*
X98107809Y-67842191D01*
X97897765Y-67701843D01*
X97650000Y-67652560D01*
X97460991Y-67652560D01*
X101435192Y-63678360D01*
X101502235Y-63723157D01*
X101750000Y-63772440D01*
X103250000Y-63772440D01*
X103497765Y-63723157D01*
X103707809Y-63582809D01*
X103750000Y-63519666D01*
X103792191Y-63582809D01*
X104002235Y-63723157D01*
X104250000Y-63772440D01*
X105750000Y-63772440D01*
X105997765Y-63723157D01*
X106207809Y-63582809D01*
X106312601Y-63425978D01*
X106312601Y-63436135D01*
X106301843Y-63452235D01*
X106252560Y-63700000D01*
X106252560Y-64300000D01*
X106301843Y-64547765D01*
X106442191Y-64757809D01*
X106616781Y-64874467D01*
X105978649Y-65512600D01*
X105247440Y-65512600D01*
X105247440Y-64900000D01*
X105198157Y-64652235D01*
X105057809Y-64442191D01*
X104847765Y-64301843D01*
X104600000Y-64252560D01*
X101800000Y-64252560D01*
X101552235Y-64301843D01*
X101342191Y-64442191D01*
X101201843Y-64652235D01*
X101152560Y-64900000D01*
X101152560Y-67700000D01*
X101201843Y-67947765D01*
X101342191Y-68157809D01*
X101552235Y-68298157D01*
X101800000Y-68347440D01*
X104600000Y-68347440D01*
X104847765Y-68298157D01*
X105057809Y-68157809D01*
X105198157Y-67947765D01*
X105247440Y-67700000D01*
X105247440Y-67087400D01*
X106227249Y-67087400D01*
X106304800Y-67102826D01*
X106382351Y-67087400D01*
X106382352Y-67087400D01*
X106612028Y-67041715D01*
X106872484Y-66867684D01*
X106916416Y-66801935D01*
X107132601Y-66585750D01*
X110865000Y-66585750D01*
X110865000Y-67826310D01*
X110961673Y-68059699D01*
X111140302Y-68238327D01*
X111373691Y-68335000D01*
X112314250Y-68335000D01*
X112473000Y-68176250D01*
X112473000Y-66427000D01*
X111023750Y-66427000D01*
X110865000Y-66585750D01*
X107132601Y-66585750D01*
X108501938Y-65216414D01*
X108567684Y-65172484D01*
X108741715Y-64912028D01*
X108769231Y-64773690D01*
X110865000Y-64773690D01*
X110865000Y-66014250D01*
X111023750Y-66173000D01*
X112473000Y-66173000D01*
X112473000Y-64423750D01*
X112314250Y-64265000D01*
X111373691Y-64265000D01*
X111140302Y-64361673D01*
X110961673Y-64540301D01*
X110865000Y-64773690D01*
X108769231Y-64773690D01*
X108787400Y-64682352D01*
X108787400Y-64682351D01*
X108802826Y-64604800D01*
X108793012Y-64555464D01*
X108798157Y-64547765D01*
X108847440Y-64300000D01*
X108847440Y-63700000D01*
X108798157Y-63452235D01*
X108657809Y-63242191D01*
X108656625Y-63241400D01*
X108738327Y-63159699D01*
X108835000Y-62926310D01*
X108835000Y-62785750D01*
X108676250Y-62627000D01*
X108100000Y-62627000D01*
X108100000Y-62647000D01*
X107947440Y-62647000D01*
X107947440Y-62200000D01*
X107900000Y-61961500D01*
X107900000Y-61723750D01*
X108100000Y-61723750D01*
X108100000Y-62373000D01*
X108676250Y-62373000D01*
X108835000Y-62214250D01*
X108835000Y-62073690D01*
X108738327Y-61840301D01*
X108559698Y-61661673D01*
X108326309Y-61565000D01*
X108258750Y-61565000D01*
X108100000Y-61723750D01*
X107900000Y-61723750D01*
X107741250Y-61565000D01*
X107673691Y-61565000D01*
X107561916Y-61611299D01*
X107547765Y-61601843D01*
X107300000Y-61552560D01*
X106900000Y-61552560D01*
X106652235Y-61601843D01*
X106486477Y-61712600D01*
X106365137Y-61712600D01*
X106348157Y-61627235D01*
X106207809Y-61417191D01*
X105997765Y-61276843D01*
X105750000Y-61227560D01*
X104250000Y-61227560D01*
X104002235Y-61276843D01*
X103792191Y-61417191D01*
X103750000Y-61480334D01*
X103707809Y-61417191D01*
X103497765Y-61276843D01*
X103250000Y-61227560D01*
X101750000Y-61227560D01*
X101502235Y-61276843D01*
X101292191Y-61417191D01*
X101151843Y-61627235D01*
X101115507Y-61809912D01*
X100932316Y-61932316D01*
X100888386Y-61998062D01*
X98297440Y-64589008D01*
X98297440Y-63900000D01*
X98248157Y-63652235D01*
X98107809Y-63442191D01*
X97897765Y-63301843D01*
X97687404Y-63260000D01*
X98214250Y-63260000D01*
X98373000Y-63101250D01*
X98373000Y-62127000D01*
X98627000Y-62127000D01*
X98627000Y-63101250D01*
X98785750Y-63260000D01*
X99376309Y-63260000D01*
X99609698Y-63163327D01*
X99788327Y-62984699D01*
X99885000Y-62751310D01*
X99885000Y-62285750D01*
X99726250Y-62127000D01*
X98627000Y-62127000D01*
X98373000Y-62127000D01*
X98353000Y-62127000D01*
X98353000Y-61873000D01*
X98373000Y-61873000D01*
X98373000Y-60898750D01*
X98627000Y-60898750D01*
X98627000Y-61873000D01*
X99726250Y-61873000D01*
X99885000Y-61714250D01*
X99885000Y-61248690D01*
X99788327Y-61015301D01*
X99609698Y-60836673D01*
X99376309Y-60740000D01*
X98785750Y-60740000D01*
X98627000Y-60898750D01*
X98373000Y-60898750D01*
X98214250Y-60740000D01*
X97623691Y-60740000D01*
X97390302Y-60836673D01*
X97248654Y-60978320D01*
X97207809Y-60917191D01*
X96997765Y-60776843D01*
X96750000Y-60727560D01*
X95250000Y-60727560D01*
X95002235Y-60776843D01*
X94792191Y-60917191D01*
X94651843Y-61127235D01*
X94602560Y-61375000D01*
X94602560Y-62625000D01*
X94651843Y-62872765D01*
X94712601Y-62963695D01*
X94712600Y-63849523D01*
X94702560Y-63900000D01*
X94702560Y-65212600D01*
X94426152Y-65212600D01*
X93261614Y-64048063D01*
X93261612Y-64048060D01*
X93247638Y-64034086D01*
X93314092Y-63700000D01*
X93198839Y-63120582D01*
X92870625Y-62629375D01*
X92379418Y-62301161D01*
X91946256Y-62215000D01*
X91653744Y-62215000D01*
X91220582Y-62301161D01*
X90729375Y-62629375D01*
X90710000Y-62658372D01*
X90710000Y-60710000D01*
X114290000Y-60710000D01*
X114290000Y-64665051D01*
X114290000Y-64665051D01*
G37*
X114290000Y-64665051D02*
X114238327Y-64540301D01*
X114059698Y-64361673D01*
X113826309Y-64265000D01*
X112885750Y-64265000D01*
X112727000Y-64423750D01*
X112727000Y-66173000D01*
X112747000Y-66173000D01*
X112747000Y-66427000D01*
X112727000Y-66427000D01*
X112727000Y-68176250D01*
X112885750Y-68335000D01*
X113826309Y-68335000D01*
X114059698Y-68238327D01*
X114238327Y-68059699D01*
X114290000Y-67934949D01*
X114290001Y-79290000D01*
X90710000Y-79290000D01*
X90710000Y-77849702D01*
X90950000Y-77897440D01*
X90957323Y-77897440D01*
X90986507Y-78044159D01*
X91061938Y-78157048D01*
X91177381Y-78329820D01*
X91249487Y-78378000D01*
X91521998Y-78650511D01*
X91570180Y-78722620D01*
X91855840Y-78913493D01*
X92107747Y-78963600D01*
X92107750Y-78963600D01*
X92192799Y-78980517D01*
X92277848Y-78963600D01*
X94950517Y-78963600D01*
X95002235Y-78998157D01*
X95250000Y-79047440D01*
X95750000Y-79047440D01*
X95997765Y-78998157D01*
X96049483Y-78963600D01*
X96814951Y-78963600D01*
X96900000Y-78980517D01*
X96985049Y-78963600D01*
X96985053Y-78963600D01*
X97236960Y-78913493D01*
X97522620Y-78722620D01*
X97570802Y-78650512D01*
X98050514Y-78170800D01*
X98122620Y-78122620D01*
X98279172Y-77888325D01*
X98292191Y-77907809D01*
X98502235Y-78048157D01*
X98750000Y-78097440D01*
X99250000Y-78097440D01*
X99497765Y-78048157D01*
X99707809Y-77907809D01*
X99848157Y-77697765D01*
X99897440Y-77450000D01*
X99897440Y-76550000D01*
X99863600Y-76379873D01*
X99863600Y-76307714D01*
X100279802Y-75891512D01*
X100497765Y-75848157D01*
X100511916Y-75838701D01*
X100623691Y-75885000D01*
X100764250Y-75885000D01*
X100923000Y-75726250D01*
X100923000Y-75125000D01*
X100903000Y-75125000D01*
X100903000Y-74875000D01*
X100923000Y-74875000D01*
X100923000Y-74273750D01*
X100813600Y-74164350D01*
X100813600Y-73452847D01*
X100830517Y-73367799D01*
X100813600Y-73282751D01*
X100813600Y-73282747D01*
X100763493Y-73030840D01*
X100572620Y-72745180D01*
X100500517Y-72697002D01*
X99253002Y-71449488D01*
X99204820Y-71377380D01*
X98919160Y-71186507D01*
X98753246Y-71153505D01*
X98723157Y-71002235D01*
X98582809Y-70792191D01*
X98372765Y-70651843D01*
X98125000Y-70602560D01*
X97762000Y-70602560D01*
X97762000Y-70325162D01*
X97897765Y-70298157D01*
X98107809Y-70157809D01*
X98182490Y-70046041D01*
X101712601Y-73576153D01*
X101712601Y-74214576D01*
X101709698Y-74211673D01*
X101476309Y-74115000D01*
X101335750Y-74115000D01*
X101177000Y-74273750D01*
X101177000Y-74875000D01*
X101197000Y-74875000D01*
X101197000Y-75125000D01*
X101177000Y-75125000D01*
X101177000Y-75726250D01*
X101335750Y-75885000D01*
X101340368Y-75885000D01*
X101292191Y-75917191D01*
X101151843Y-76127235D01*
X101102560Y-76375000D01*
X101102560Y-77625000D01*
X101151843Y-77872765D01*
X101292191Y-78082809D01*
X101502235Y-78223157D01*
X101750000Y-78272440D01*
X103250000Y-78272440D01*
X103497765Y-78223157D01*
X103707809Y-78082809D01*
X103750000Y-78019666D01*
X103792191Y-78082809D01*
X104002235Y-78223157D01*
X104250000Y-78272440D01*
X105750000Y-78272440D01*
X105997765Y-78223157D01*
X106207809Y-78082809D01*
X106348157Y-77872765D01*
X106365137Y-77787400D01*
X106436477Y-77787400D01*
X106602235Y-77898157D01*
X106850000Y-77947440D01*
X107250000Y-77947440D01*
X107497765Y-77898157D01*
X107511916Y-77888701D01*
X107623691Y-77935000D01*
X107691250Y-77935000D01*
X107850000Y-77776250D01*
X107850000Y-77538500D01*
X107897440Y-77300000D01*
X107897440Y-77127000D01*
X108050000Y-77127000D01*
X108050000Y-77776250D01*
X108208750Y-77935000D01*
X108276309Y-77935000D01*
X108509698Y-77838327D01*
X108688327Y-77659699D01*
X108785000Y-77426310D01*
X108785000Y-77285750D01*
X108626250Y-77127000D01*
X108050000Y-77127000D01*
X107897440Y-77127000D01*
X107897440Y-76853000D01*
X108050000Y-76853000D01*
X108050000Y-76873000D01*
X108626250Y-76873000D01*
X108785000Y-76714250D01*
X108785000Y-76573690D01*
X108688327Y-76340301D01*
X108626653Y-76278627D01*
X108657809Y-76257809D01*
X108798157Y-76047765D01*
X108847440Y-75800000D01*
X108847440Y-75200000D01*
X108841021Y-75167730D01*
X108861883Y-75146869D01*
X108901843Y-75347765D01*
X109042191Y-75557809D01*
X109252235Y-75698157D01*
X109500000Y-75747440D01*
X111700000Y-75747440D01*
X111947765Y-75698157D01*
X112157809Y-75557809D01*
X112298157Y-75347765D01*
X112347440Y-75100000D01*
X112347440Y-72300000D01*
X112298157Y-72052235D01*
X112157809Y-71842191D01*
X111947765Y-71701843D01*
X111700000Y-71652560D01*
X109500000Y-71652560D01*
X109252235Y-71701843D01*
X109042191Y-71842191D01*
X108901843Y-72052235D01*
X108852560Y-72300000D01*
X108852560Y-72981947D01*
X108627516Y-73132316D01*
X108583586Y-73198062D01*
X107498063Y-74283586D01*
X107432317Y-74327516D01*
X107281947Y-74552560D01*
X106900000Y-74552560D01*
X106652235Y-74601843D01*
X106442191Y-74742191D01*
X106301843Y-74952235D01*
X106252560Y-75200000D01*
X106252560Y-75522923D01*
X106247174Y-75550000D01*
X106252560Y-75577077D01*
X106252560Y-75800000D01*
X106262601Y-75850479D01*
X106262601Y-75999192D01*
X106207809Y-75917191D01*
X105997765Y-75776843D01*
X105750000Y-75727560D01*
X104250000Y-75727560D01*
X104002235Y-75776843D01*
X103792191Y-75917191D01*
X103750000Y-75980334D01*
X103707809Y-75917191D01*
X103497765Y-75776843D01*
X103287400Y-75734999D01*
X103287400Y-73327551D01*
X103302826Y-73250000D01*
X103287400Y-73172448D01*
X103241715Y-72942772D01*
X103067684Y-72682316D01*
X103001938Y-72638386D01*
X100068167Y-69704615D01*
X103015000Y-69704615D01*
X103015000Y-70295385D01*
X103241078Y-70841185D01*
X103658815Y-71258922D01*
X104204615Y-71485000D01*
X104795385Y-71485000D01*
X105341185Y-71258922D01*
X105758922Y-70841185D01*
X105985000Y-70295385D01*
X105985000Y-69704615D01*
X110015000Y-69704615D01*
X110015000Y-70295385D01*
X110241078Y-70841185D01*
X110658815Y-71258922D01*
X111204615Y-71485000D01*
X111795385Y-71485000D01*
X112341185Y-71258922D01*
X112758922Y-70841185D01*
X112985000Y-70295385D01*
X112985000Y-69704615D01*
X112758922Y-69158815D01*
X112341185Y-68741078D01*
X111795385Y-68515000D01*
X111204615Y-68515000D01*
X110658815Y-68741078D01*
X110241078Y-69158815D01*
X110015000Y-69704615D01*
X105985000Y-69704615D01*
X105758922Y-69158815D01*
X105341185Y-68741078D01*
X104795385Y-68515000D01*
X104204615Y-68515000D01*
X103658815Y-68741078D01*
X103241078Y-69158815D01*
X103015000Y-69704615D01*
X100068167Y-69704615D01*
X98861616Y-68498065D01*
X98817684Y-68432316D01*
X98557228Y-68258285D01*
X98327552Y-68212600D01*
X98327551Y-68212600D01*
X98278099Y-68202763D01*
X98248157Y-68052235D01*
X98107809Y-67842191D01*
X97897765Y-67701843D01*
X97650000Y-67652560D01*
X97460991Y-67652560D01*
X101435192Y-63678360D01*
X101502235Y-63723157D01*
X101750000Y-63772440D01*
X103250000Y-63772440D01*
X103497765Y-63723157D01*
X103707809Y-63582809D01*
X103750000Y-63519666D01*
X103792191Y-63582809D01*
X104002235Y-63723157D01*
X104250000Y-63772440D01*
X105750000Y-63772440D01*
X105997765Y-63723157D01*
X106207809Y-63582809D01*
X106312601Y-63425978D01*
X106312601Y-63436135D01*
X106301843Y-63452235D01*
X106252560Y-63700000D01*
X106252560Y-64300000D01*
X106301843Y-64547765D01*
X106442191Y-64757809D01*
X106616781Y-64874467D01*
X105978649Y-65512600D01*
X105247440Y-65512600D01*
X105247440Y-64900000D01*
X105198157Y-64652235D01*
X105057809Y-64442191D01*
X104847765Y-64301843D01*
X104600000Y-64252560D01*
X101800000Y-64252560D01*
X101552235Y-64301843D01*
X101342191Y-64442191D01*
X101201843Y-64652235D01*
X101152560Y-64900000D01*
X101152560Y-67700000D01*
X101201843Y-67947765D01*
X101342191Y-68157809D01*
X101552235Y-68298157D01*
X101800000Y-68347440D01*
X104600000Y-68347440D01*
X104847765Y-68298157D01*
X105057809Y-68157809D01*
X105198157Y-67947765D01*
X105247440Y-67700000D01*
X105247440Y-67087400D01*
X106227249Y-67087400D01*
X106304800Y-67102826D01*
X106382351Y-67087400D01*
X106382352Y-67087400D01*
X106612028Y-67041715D01*
X106872484Y-66867684D01*
X106916416Y-66801935D01*
X107132601Y-66585750D01*
X110865000Y-66585750D01*
X110865000Y-67826310D01*
X110961673Y-68059699D01*
X111140302Y-68238327D01*
X111373691Y-68335000D01*
X112314250Y-68335000D01*
X112473000Y-68176250D01*
X112473000Y-66427000D01*
X111023750Y-66427000D01*
X110865000Y-66585750D01*
X107132601Y-66585750D01*
X108501938Y-65216414D01*
X108567684Y-65172484D01*
X108741715Y-64912028D01*
X108769231Y-64773690D01*
X110865000Y-64773690D01*
X110865000Y-66014250D01*
X111023750Y-66173000D01*
X112473000Y-66173000D01*
X112473000Y-64423750D01*
X112314250Y-64265000D01*
X111373691Y-64265000D01*
X111140302Y-64361673D01*
X110961673Y-64540301D01*
X110865000Y-64773690D01*
X108769231Y-64773690D01*
X108787400Y-64682352D01*
X108787400Y-64682351D01*
X108802826Y-64604800D01*
X108793012Y-64555464D01*
X108798157Y-64547765D01*
X108847440Y-64300000D01*
X108847440Y-63700000D01*
X108798157Y-63452235D01*
X108657809Y-63242191D01*
X108656625Y-63241400D01*
X108738327Y-63159699D01*
X108835000Y-62926310D01*
X108835000Y-62785750D01*
X108676250Y-62627000D01*
X108100000Y-62627000D01*
X108100000Y-62647000D01*
X107947440Y-62647000D01*
X107947440Y-62200000D01*
X107900000Y-61961500D01*
X107900000Y-61723750D01*
X108100000Y-61723750D01*
X108100000Y-62373000D01*
X108676250Y-62373000D01*
X108835000Y-62214250D01*
X108835000Y-62073690D01*
X108738327Y-61840301D01*
X108559698Y-61661673D01*
X108326309Y-61565000D01*
X108258750Y-61565000D01*
X108100000Y-61723750D01*
X107900000Y-61723750D01*
X107741250Y-61565000D01*
X107673691Y-61565000D01*
X107561916Y-61611299D01*
X107547765Y-61601843D01*
X107300000Y-61552560D01*
X106900000Y-61552560D01*
X106652235Y-61601843D01*
X106486477Y-61712600D01*
X106365137Y-61712600D01*
X106348157Y-61627235D01*
X106207809Y-61417191D01*
X105997765Y-61276843D01*
X105750000Y-61227560D01*
X104250000Y-61227560D01*
X104002235Y-61276843D01*
X103792191Y-61417191D01*
X103750000Y-61480334D01*
X103707809Y-61417191D01*
X103497765Y-61276843D01*
X103250000Y-61227560D01*
X101750000Y-61227560D01*
X101502235Y-61276843D01*
X101292191Y-61417191D01*
X101151843Y-61627235D01*
X101115507Y-61809912D01*
X100932316Y-61932316D01*
X100888386Y-61998062D01*
X98297440Y-64589008D01*
X98297440Y-63900000D01*
X98248157Y-63652235D01*
X98107809Y-63442191D01*
X97897765Y-63301843D01*
X97687404Y-63260000D01*
X98214250Y-63260000D01*
X98373000Y-63101250D01*
X98373000Y-62127000D01*
X98627000Y-62127000D01*
X98627000Y-63101250D01*
X98785750Y-63260000D01*
X99376309Y-63260000D01*
X99609698Y-63163327D01*
X99788327Y-62984699D01*
X99885000Y-62751310D01*
X99885000Y-62285750D01*
X99726250Y-62127000D01*
X98627000Y-62127000D01*
X98373000Y-62127000D01*
X98353000Y-62127000D01*
X98353000Y-61873000D01*
X98373000Y-61873000D01*
X98373000Y-60898750D01*
X98627000Y-60898750D01*
X98627000Y-61873000D01*
X99726250Y-61873000D01*
X99885000Y-61714250D01*
X99885000Y-61248690D01*
X99788327Y-61015301D01*
X99609698Y-60836673D01*
X99376309Y-60740000D01*
X98785750Y-60740000D01*
X98627000Y-60898750D01*
X98373000Y-60898750D01*
X98214250Y-60740000D01*
X97623691Y-60740000D01*
X97390302Y-60836673D01*
X97248654Y-60978320D01*
X97207809Y-60917191D01*
X96997765Y-60776843D01*
X96750000Y-60727560D01*
X95250000Y-60727560D01*
X95002235Y-60776843D01*
X94792191Y-60917191D01*
X94651843Y-61127235D01*
X94602560Y-61375000D01*
X94602560Y-62625000D01*
X94651843Y-62872765D01*
X94712601Y-62963695D01*
X94712600Y-63849523D01*
X94702560Y-63900000D01*
X94702560Y-65212600D01*
X94426152Y-65212600D01*
X93261614Y-64048063D01*
X93261612Y-64048060D01*
X93247638Y-64034086D01*
X93314092Y-63700000D01*
X93198839Y-63120582D01*
X92870625Y-62629375D01*
X92379418Y-62301161D01*
X91946256Y-62215000D01*
X91653744Y-62215000D01*
X91220582Y-62301161D01*
X90729375Y-62629375D01*
X90710000Y-62658372D01*
X90710000Y-60710000D01*
X114290000Y-60710000D01*
X114290000Y-64665051D01*
G36*
X94702560Y-69700000D02*
X94712600Y-69750476D01*
X94712601Y-70634863D01*
X94627235Y-70651843D01*
X94417191Y-70792191D01*
X94276843Y-71002235D01*
X94227560Y-71250000D01*
X94227560Y-72750000D01*
X94276843Y-72997765D01*
X94417191Y-73207809D01*
X94478320Y-73248654D01*
X94336673Y-73390302D01*
X94240000Y-73623691D01*
X94240000Y-74214250D01*
X94398750Y-74373000D01*
X95373000Y-74373000D01*
X95373000Y-74353000D01*
X95627000Y-74353000D01*
X95627000Y-74373000D01*
X97373000Y-74373000D01*
X97373000Y-74353000D01*
X97627000Y-74353000D01*
X97627000Y-74373000D01*
X98601250Y-74373000D01*
X98760000Y-74214250D01*
X98760000Y-73623691D01*
X98663327Y-73390302D01*
X98521680Y-73248654D01*
X98574348Y-73213462D01*
X99086400Y-73725515D01*
X99086401Y-74450516D01*
X99051843Y-74502235D01*
X99008488Y-74720198D01*
X98760000Y-74968686D01*
X98760000Y-74785750D01*
X98601250Y-74627000D01*
X97627000Y-74627000D01*
X97627000Y-75726250D01*
X97785750Y-75885000D01*
X98132412Y-75885000D01*
X98119483Y-75950000D01*
X98136401Y-76035053D01*
X98136401Y-76044477D01*
X97997765Y-75951843D01*
X97750000Y-75902560D01*
X97250000Y-75902560D01*
X97002235Y-75951843D01*
X96792191Y-76092191D01*
X96651843Y-76302235D01*
X96602560Y-76550000D01*
X96602560Y-77176126D01*
X96542287Y-77236400D01*
X96335650Y-77236400D01*
X96226250Y-77127000D01*
X95625000Y-77127000D01*
X95625000Y-77147000D01*
X95375000Y-77147000D01*
X95375000Y-77127000D01*
X94773750Y-77127000D01*
X94664350Y-77236400D01*
X93297440Y-77236400D01*
X93297440Y-76573691D01*
X94615000Y-76573691D01*
X94615000Y-76714250D01*
X94773750Y-76873000D01*
X95375000Y-76873000D01*
X95375000Y-76223750D01*
X95625000Y-76223750D01*
X95625000Y-76873000D01*
X96226250Y-76873000D01*
X96385000Y-76714250D01*
X96385000Y-76573691D01*
X96288327Y-76340302D01*
X96109699Y-76161673D01*
X95876310Y-76065000D01*
X95783750Y-76065000D01*
X95625000Y-76223750D01*
X95375000Y-76223750D01*
X95216250Y-76065000D01*
X95123690Y-76065000D01*
X94890301Y-76161673D01*
X94711673Y-76340302D01*
X94615000Y-76573691D01*
X93297440Y-76573691D01*
X93297440Y-75550000D01*
X93248157Y-75302235D01*
X93107809Y-75092191D01*
X92897765Y-74951843D01*
X92794292Y-74931261D01*
X92926901Y-74785750D01*
X94240000Y-74785750D01*
X94240000Y-75376309D01*
X94336673Y-75609698D01*
X94515301Y-75788327D01*
X94748690Y-75885000D01*
X95214250Y-75885000D01*
X95373000Y-75726250D01*
X95373000Y-74627000D01*
X95627000Y-74627000D01*
X95627000Y-75726250D01*
X95785750Y-75885000D01*
X96251310Y-75885000D01*
X96484699Y-75788327D01*
X96500000Y-75773026D01*
X96515301Y-75788327D01*
X96748690Y-75885000D01*
X97214250Y-75885000D01*
X97373000Y-75726250D01*
X97373000Y-74627000D01*
X95627000Y-74627000D01*
X95373000Y-74627000D01*
X94398750Y-74627000D01*
X94240000Y-74785750D01*
X92926901Y-74785750D01*
X93071645Y-74626924D01*
X93241476Y-74216890D01*
X93120155Y-73987000D01*
X91927000Y-73987000D01*
X91927000Y-74007000D01*
X91673000Y-74007000D01*
X91673000Y-73987000D01*
X91653000Y-73987000D01*
X91653000Y-73733000D01*
X91673000Y-73733000D01*
X91673000Y-73713000D01*
X91927000Y-73713000D01*
X91927000Y-73733000D01*
X93120155Y-73733000D01*
X93241476Y-73503110D01*
X93071645Y-73093076D01*
X92681358Y-72664817D01*
X92551522Y-72603843D01*
X92870625Y-72390625D01*
X93198839Y-71899418D01*
X93314092Y-71320000D01*
X93248702Y-70991262D01*
X93391714Y-70777229D01*
X93437399Y-70547553D01*
X93452825Y-70470002D01*
X93437399Y-70392451D01*
X93437399Y-70176152D01*
X94702560Y-68910992D01*
X94702560Y-69700000D01*
X94702560Y-69700000D01*
G37*
X94702560Y-69700000D02*
X94712600Y-69750476D01*
X94712601Y-70634863D01*
X94627235Y-70651843D01*
X94417191Y-70792191D01*
X94276843Y-71002235D01*
X94227560Y-71250000D01*
X94227560Y-72750000D01*
X94276843Y-72997765D01*
X94417191Y-73207809D01*
X94478320Y-73248654D01*
X94336673Y-73390302D01*
X94240000Y-73623691D01*
X94240000Y-74214250D01*
X94398750Y-74373000D01*
X95373000Y-74373000D01*
X95373000Y-74353000D01*
X95627000Y-74353000D01*
X95627000Y-74373000D01*
X97373000Y-74373000D01*
X97373000Y-74353000D01*
X97627000Y-74353000D01*
X97627000Y-74373000D01*
X98601250Y-74373000D01*
X98760000Y-74214250D01*
X98760000Y-73623691D01*
X98663327Y-73390302D01*
X98521680Y-73248654D01*
X98574348Y-73213462D01*
X99086400Y-73725515D01*
X99086401Y-74450516D01*
X99051843Y-74502235D01*
X99008488Y-74720198D01*
X98760000Y-74968686D01*
X98760000Y-74785750D01*
X98601250Y-74627000D01*
X97627000Y-74627000D01*
X97627000Y-75726250D01*
X97785750Y-75885000D01*
X98132412Y-75885000D01*
X98119483Y-75950000D01*
X98136401Y-76035053D01*
X98136401Y-76044477D01*
X97997765Y-75951843D01*
X97750000Y-75902560D01*
X97250000Y-75902560D01*
X97002235Y-75951843D01*
X96792191Y-76092191D01*
X96651843Y-76302235D01*
X96602560Y-76550000D01*
X96602560Y-77176126D01*
X96542287Y-77236400D01*
X96335650Y-77236400D01*
X96226250Y-77127000D01*
X95625000Y-77127000D01*
X95625000Y-77147000D01*
X95375000Y-77147000D01*
X95375000Y-77127000D01*
X94773750Y-77127000D01*
X94664350Y-77236400D01*
X93297440Y-77236400D01*
X93297440Y-76573691D01*
X94615000Y-76573691D01*
X94615000Y-76714250D01*
X94773750Y-76873000D01*
X95375000Y-76873000D01*
X95375000Y-76223750D01*
X95625000Y-76223750D01*
X95625000Y-76873000D01*
X96226250Y-76873000D01*
X96385000Y-76714250D01*
X96385000Y-76573691D01*
X96288327Y-76340302D01*
X96109699Y-76161673D01*
X95876310Y-76065000D01*
X95783750Y-76065000D01*
X95625000Y-76223750D01*
X95375000Y-76223750D01*
X95216250Y-76065000D01*
X95123690Y-76065000D01*
X94890301Y-76161673D01*
X94711673Y-76340302D01*
X94615000Y-76573691D01*
X93297440Y-76573691D01*
X93297440Y-75550000D01*
X93248157Y-75302235D01*
X93107809Y-75092191D01*
X92897765Y-74951843D01*
X92794292Y-74931261D01*
X92926901Y-74785750D01*
X94240000Y-74785750D01*
X94240000Y-75376309D01*
X94336673Y-75609698D01*
X94515301Y-75788327D01*
X94748690Y-75885000D01*
X95214250Y-75885000D01*
X95373000Y-75726250D01*
X95373000Y-74627000D01*
X95627000Y-74627000D01*
X95627000Y-75726250D01*
X95785750Y-75885000D01*
X96251310Y-75885000D01*
X96484699Y-75788327D01*
X96500000Y-75773026D01*
X96515301Y-75788327D01*
X96748690Y-75885000D01*
X97214250Y-75885000D01*
X97373000Y-75726250D01*
X97373000Y-74627000D01*
X95627000Y-74627000D01*
X95373000Y-74627000D01*
X94398750Y-74627000D01*
X94240000Y-74785750D01*
X92926901Y-74785750D01*
X93071645Y-74626924D01*
X93241476Y-74216890D01*
X93120155Y-73987000D01*
X91927000Y-73987000D01*
X91927000Y-74007000D01*
X91673000Y-74007000D01*
X91673000Y-73987000D01*
X91653000Y-73987000D01*
X91653000Y-73733000D01*
X91673000Y-73733000D01*
X91673000Y-73713000D01*
X91927000Y-73713000D01*
X91927000Y-73733000D01*
X93120155Y-73733000D01*
X93241476Y-73503110D01*
X93071645Y-73093076D01*
X92681358Y-72664817D01*
X92551522Y-72603843D01*
X92870625Y-72390625D01*
X93198839Y-71899418D01*
X93314092Y-71320000D01*
X93248702Y-70991262D01*
X93391714Y-70777229D01*
X93437399Y-70547553D01*
X93452825Y-70470002D01*
X93437399Y-70392451D01*
X93437399Y-70176152D01*
X94702560Y-68910992D01*
X94702560Y-69700000D01*
G04 #@! TD*
M02*
