G04 #@! TF.GenerationSoftware,KiCad,Pcbnew,(5.0.0-3-g5ebb6b6)*
G04 #@! TF.CreationDate,2018-08-26T23:18:38+02:00*
G04 #@! TF.ProjectId,Pmod-I2S,506D6F642D4932532E6B696361645F70,rev?*
G04 #@! TF.SameCoordinates,Original*
G04 #@! TF.FileFunction,Soldermask,Top*
G04 #@! TF.FilePolarity,Negative*
%FSLAX46Y46*%
G04 Gerber Fmt 4.6, Leading zero omitted, Abs format (unit mm)*
G04 Created by KiCad (PCBNEW (5.0.0-3-g5ebb6b6)) date Sunday, 26 August 2018 at 23:18:38*
%MOMM*%
%LPD*%
G01*
G04 APERTURE LIST*
%ADD10R,1.900000X1.650000*%
%ADD11R,1.650000X1.900000*%
%ADD12O,2.100000X2.100000*%
%ADD13R,2.100000X2.100000*%
%ADD14R,0.900000X1.300000*%
%ADD15R,2.600000X3.200000*%
%ADD16R,3.200000X3.200000*%
%ADD17C,2.100000*%
%ADD18R,0.900000X1.000000*%
%ADD19R,1.000000X0.900000*%
%ADD20R,0.700000X1.800000*%
%ADD21R,0.800000X1.000000*%
G04 APERTURE END LIST*
D10*
G04 #@! TO.C,C7*
X102500000Y-62500000D03*
X105000000Y-62500000D03*
G04 #@! TD*
G04 #@! TO.C,C6*
X105000000Y-77000000D03*
X102500000Y-77000000D03*
G04 #@! TD*
D11*
G04 #@! TO.C,C5*
X95500000Y-74500000D03*
X95500000Y-72000000D03*
G04 #@! TD*
D10*
G04 #@! TO.C,C4*
X96000000Y-62000000D03*
X98500000Y-62000000D03*
G04 #@! TD*
D11*
G04 #@! TO.C,C2*
X97500000Y-74500000D03*
X97500000Y-72000000D03*
G04 #@! TD*
D12*
G04 #@! TO.C,J2*
X91800000Y-63700000D03*
X91800000Y-66240000D03*
X91800000Y-68780000D03*
X91800000Y-71320000D03*
X91800000Y-73860000D03*
D13*
X91800000Y-76400000D03*
G04 #@! TD*
D14*
G04 #@! TO.C,L1*
X99000000Y-77000000D03*
X97500000Y-77000000D03*
G04 #@! TD*
D15*
G04 #@! TO.C,J1*
X110600000Y-73700000D03*
X112600000Y-66300000D03*
D16*
X103200000Y-66300000D03*
D17*
X111500000Y-70000000D03*
X104500000Y-70000000D03*
G04 #@! TD*
D18*
G04 #@! TO.C,C1*
X95500000Y-77000000D03*
X95500000Y-78100000D03*
G04 #@! TD*
D19*
G04 #@! TO.C,C3*
X99950000Y-75000000D03*
X101050000Y-75000000D03*
G04 #@! TD*
D20*
G04 #@! TO.C,IC1*
X97500000Y-69000000D03*
X97000000Y-69000000D03*
X96500000Y-69000000D03*
X96000000Y-69000000D03*
X95500000Y-69000000D03*
X95500000Y-64600000D03*
X96000000Y-64600000D03*
X96500000Y-64600000D03*
X97000000Y-64600000D03*
X97500000Y-64600000D03*
G04 #@! TD*
D21*
G04 #@! TO.C,R1*
X107950000Y-77000000D03*
X107050000Y-77000000D03*
G04 #@! TD*
G04 #@! TO.C,R2*
X107100000Y-62500000D03*
X108000000Y-62500000D03*
G04 #@! TD*
G04 #@! TO.C,R3*
X107100000Y-75500000D03*
X108000000Y-75500000D03*
G04 #@! TD*
G04 #@! TO.C,R4*
X108000000Y-64000000D03*
X107100000Y-64000000D03*
G04 #@! TD*
M02*
