M48
;DRILL file {KiCad (5.0.0-3-g5ebb6b6)} date Sunday, 26 August 2018 at 23:18:45
;FORMAT={2:4/ absolute / inch / suppress trailing zeros}
FMAT,2
INCH,LZ
T1C0.0130
T2C0.0394
T3C0.0669
%
G90
G05
M72
T1
X037008Y-024606
X037008Y-030118
X037894Y-027756
X038878Y-029331
X03937Y-026181
X039469Y-024409
X039567Y-030315
X039862Y-029035
X041339Y-029331
X04252Y-027559
X04311Y-024606
X04311Y-026181
X04311Y-030315
X044291Y-024606
X044291Y-030512
T2
X036142Y-025079
X036142Y-026079
X036142Y-027079
X036142Y-028079
X036142Y-029079
X036142Y-030079
T3
X041142Y-027559
X043898Y-027559
T0
M30
