G04 #@! TF.GenerationSoftware,KiCad,Pcbnew,(5.0.0-3-g5ebb6b6)*
G04 #@! TF.CreationDate,2018-08-26T23:18:38+02:00*
G04 #@! TF.ProjectId,Pmod-I2S,506D6F642D4932532E6B696361645F70,rev?*
G04 #@! TF.SameCoordinates,Original*
G04 #@! TF.FileFunction,Legend,Top*
G04 #@! TF.FilePolarity,Positive*
%FSLAX46Y46*%
G04 Gerber Fmt 4.6, Leading zero omitted, Abs format (unit mm)*
G04 Created by KiCad (PCBNEW (5.0.0-3-g5ebb6b6)) date Sunday, 26 August 2018 at 23:18:38*
%MOMM*%
%LPD*%
G01*
G04 APERTURE LIST*
%ADD10C,0.120000*%
%ADD11C,0.150000*%
%ADD12C,0.010000*%
%ADD13R,1.900000X1.650000*%
%ADD14R,1.650000X1.900000*%
%ADD15O,2.100000X2.100000*%
%ADD16R,2.100000X2.100000*%
%ADD17R,0.900000X1.300000*%
%ADD18R,2.600000X3.200000*%
%ADD19R,3.200000X3.200000*%
%ADD20C,2.100000*%
%ADD21R,0.900000X1.000000*%
%ADD22R,1.000000X0.900000*%
%ADD23R,0.700000X1.800000*%
%ADD24R,0.800000X1.000000*%
G04 APERTURE END LIST*
D10*
G04 #@! TO.C,C7*
X104250000Y-61650000D02*
X103250000Y-61650000D01*
X103250000Y-63350000D02*
X104250000Y-63350000D01*
G04 #@! TO.C,C6*
X103250000Y-77850000D02*
X104250000Y-77850000D01*
X104250000Y-76150000D02*
X103250000Y-76150000D01*
G04 #@! TO.C,C5*
X94650000Y-72750000D02*
X94650000Y-73750000D01*
X96350000Y-73750000D02*
X96350000Y-72750000D01*
G04 #@! TO.C,C4*
X97750000Y-61150000D02*
X96750000Y-61150000D01*
X96750000Y-62850000D02*
X97750000Y-62850000D01*
G04 #@! TO.C,C2*
X96650000Y-72750000D02*
X96650000Y-73750000D01*
X98350000Y-73750000D02*
X98350000Y-72750000D01*
G04 #@! TO.C,J2*
X93130000Y-77730000D02*
X91800000Y-77730000D01*
X93130000Y-76400000D02*
X93130000Y-77730000D01*
X93130000Y-75130000D02*
X90470000Y-75130000D01*
X90470000Y-75130000D02*
X90470000Y-62370000D01*
X93130000Y-75130000D02*
X93130000Y-62370000D01*
X93130000Y-62370000D02*
X90470000Y-62370000D01*
G04 #@! TO.C,L1*
X97750000Y-76320000D02*
X98750000Y-76320000D01*
X98750000Y-77680000D02*
X97750000Y-77680000D01*
D11*
G04 #@! TO.C,J1*
X115000000Y-73000000D02*
X100500000Y-73000000D01*
X115000000Y-67000000D02*
X100500000Y-67000000D01*
X100500000Y-73000000D02*
X100500000Y-67000000D01*
X115000000Y-72500000D02*
X117500000Y-72500000D01*
X115000000Y-67500000D02*
X117500000Y-67500000D01*
X115000000Y-73000000D02*
X115000000Y-72500000D01*
X115000000Y-67500000D02*
X115000000Y-67000000D01*
X117500000Y-72500000D02*
X117500000Y-67500000D01*
D10*
G04 #@! TO.C,C1*
X95970000Y-77800000D02*
X95970000Y-77300000D01*
X95030000Y-77300000D02*
X95030000Y-77800000D01*
G04 #@! TO.C,C3*
X100750000Y-74530000D02*
X100250000Y-74530000D01*
X100250000Y-75470000D02*
X100750000Y-75470000D01*
D11*
G04 #@! TO.C,IC1*
X97950000Y-65125000D02*
X97950000Y-63900000D01*
X94825000Y-65125000D02*
X94825000Y-68475000D01*
X98175000Y-65125000D02*
X98175000Y-68475000D01*
X94825000Y-65125000D02*
X95125000Y-65125000D01*
X94825000Y-68475000D02*
X95125000Y-68475000D01*
X98175000Y-68475000D02*
X97875000Y-68475000D01*
X98175000Y-65125000D02*
X97950000Y-65125000D01*
D10*
G04 #@! TO.C,R1*
X107250000Y-77530000D02*
X107750000Y-77530000D01*
X107750000Y-76470000D02*
X107250000Y-76470000D01*
G04 #@! TO.C,R2*
X107800000Y-61970000D02*
X107300000Y-61970000D01*
X107300000Y-63030000D02*
X107800000Y-63030000D01*
G04 #@! TO.C,R3*
X107800000Y-74970000D02*
X107300000Y-74970000D01*
X107300000Y-76030000D02*
X107800000Y-76030000D01*
G04 #@! TO.C,R4*
X107300000Y-64530000D02*
X107800000Y-64530000D01*
X107800000Y-63470000D02*
X107300000Y-63470000D01*
D12*
G04 #@! TO.C,G\002A\002A\002A*
G36*
X112521333Y-75775398D02*
X112523546Y-75783743D01*
X112527568Y-75802182D01*
X112533149Y-75829450D01*
X112540040Y-75864281D01*
X112547992Y-75905410D01*
X112556757Y-75951569D01*
X112566086Y-76001494D01*
X112570441Y-76025069D01*
X112579963Y-76076387D01*
X112589054Y-76124600D01*
X112597461Y-76168427D01*
X112604933Y-76206588D01*
X112611217Y-76237802D01*
X112616061Y-76260789D01*
X112619214Y-76274266D01*
X112620009Y-76276877D01*
X112621668Y-76281278D01*
X112623462Y-76285022D01*
X112626451Y-76288618D01*
X112631690Y-76292577D01*
X112640239Y-76297409D01*
X112653156Y-76303626D01*
X112671497Y-76311738D01*
X112696321Y-76322254D01*
X112728686Y-76335687D01*
X112769650Y-76352546D01*
X112817647Y-76372264D01*
X112869327Y-76393279D01*
X112911081Y-76409745D01*
X112943500Y-76421875D01*
X112967177Y-76429882D01*
X112982702Y-76433977D01*
X112990669Y-76434374D01*
X112990676Y-76434371D01*
X112998021Y-76430318D01*
X113013765Y-76420408D01*
X113036819Y-76405364D01*
X113066098Y-76385912D01*
X113100513Y-76362774D01*
X113138976Y-76336676D01*
X113180402Y-76308341D01*
X113194459Y-76298677D01*
X113247031Y-76262497D01*
X113290930Y-76232345D01*
X113326994Y-76207702D01*
X113356062Y-76188050D01*
X113378971Y-76172871D01*
X113396558Y-76161647D01*
X113409663Y-76153859D01*
X113419123Y-76148990D01*
X113425775Y-76146520D01*
X113430458Y-76145932D01*
X113434010Y-76146708D01*
X113437268Y-76148329D01*
X113437413Y-76148409D01*
X113443578Y-76153607D01*
X113456983Y-76166140D01*
X113476740Y-76185140D01*
X113501965Y-76209740D01*
X113531769Y-76239074D01*
X113565268Y-76272272D01*
X113601574Y-76308469D01*
X113626141Y-76333076D01*
X113671284Y-76378520D01*
X113708692Y-76416524D01*
X113738916Y-76447684D01*
X113762508Y-76472600D01*
X113780020Y-76491867D01*
X113792003Y-76506084D01*
X113799010Y-76515849D01*
X113801592Y-76521758D01*
X113801546Y-76523052D01*
X113797746Y-76530049D01*
X113788076Y-76545497D01*
X113773232Y-76568349D01*
X113753907Y-76597558D01*
X113730798Y-76632077D01*
X113704599Y-76670861D01*
X113676005Y-76712861D01*
X113659969Y-76736284D01*
X113630353Y-76779597D01*
X113602731Y-76820266D01*
X113577802Y-76857241D01*
X113556264Y-76889473D01*
X113538818Y-76915913D01*
X113526162Y-76935510D01*
X113518996Y-76947216D01*
X113517661Y-76949868D01*
X113518830Y-76959262D01*
X113524992Y-76979031D01*
X113536137Y-77009149D01*
X113552255Y-77049585D01*
X113573335Y-77100313D01*
X113583925Y-77125291D01*
X113605764Y-77176552D01*
X113623559Y-77218231D01*
X113637820Y-77251354D01*
X113649055Y-77276948D01*
X113657774Y-77296040D01*
X113664487Y-77309658D01*
X113669702Y-77318827D01*
X113673931Y-77324575D01*
X113677681Y-77327929D01*
X113681463Y-77329915D01*
X113685785Y-77331561D01*
X113686371Y-77331787D01*
X113695293Y-77334128D01*
X113714277Y-77338281D01*
X113742029Y-77343991D01*
X113777252Y-77351000D01*
X113818652Y-77359052D01*
X113864931Y-77367891D01*
X113914796Y-77377260D01*
X113934478Y-77380917D01*
X113985039Y-77390412D01*
X114032221Y-77399519D01*
X114074777Y-77407978D01*
X114111460Y-77415532D01*
X114141025Y-77421921D01*
X114162226Y-77426887D01*
X114173814Y-77430171D01*
X114175489Y-77430964D01*
X114177635Y-77438392D01*
X114179504Y-77455929D01*
X114181095Y-77482144D01*
X114182406Y-77515605D01*
X114183438Y-77554879D01*
X114184189Y-77598534D01*
X114184658Y-77645138D01*
X114184845Y-77693260D01*
X114184749Y-77741468D01*
X114184369Y-77788328D01*
X114183704Y-77832410D01*
X114182753Y-77872280D01*
X114181515Y-77906508D01*
X114179990Y-77933661D01*
X114178176Y-77952307D01*
X114176074Y-77961014D01*
X114175804Y-77961322D01*
X114168536Y-77963797D01*
X114151151Y-77968074D01*
X114124892Y-77973892D01*
X114091000Y-77980995D01*
X114050720Y-77989124D01*
X114005294Y-77998021D01*
X113955965Y-78007427D01*
X113934792Y-78011391D01*
X113884049Y-78020970D01*
X113836555Y-78030182D01*
X113793579Y-78038763D01*
X113756387Y-78046450D01*
X113726247Y-78052979D01*
X113704427Y-78058085D01*
X113692195Y-78061504D01*
X113690271Y-78062340D01*
X113685447Y-78069374D01*
X113677157Y-78085692D01*
X113666017Y-78109776D01*
X113652644Y-78140110D01*
X113637652Y-78175177D01*
X113621658Y-78213461D01*
X113605279Y-78253444D01*
X113589129Y-78293609D01*
X113573826Y-78332442D01*
X113559984Y-78368423D01*
X113548221Y-78400038D01*
X113539151Y-78425769D01*
X113533392Y-78444099D01*
X113531546Y-78453154D01*
X113534765Y-78462197D01*
X113544466Y-78479960D01*
X113560716Y-78506548D01*
X113583584Y-78542066D01*
X113613137Y-78586622D01*
X113649441Y-78640321D01*
X113667205Y-78666336D01*
X113696331Y-78709089D01*
X113723313Y-78749094D01*
X113747469Y-78785308D01*
X113768115Y-78816688D01*
X113784567Y-78842189D01*
X113796141Y-78860770D01*
X113802154Y-78871387D01*
X113802864Y-78873327D01*
X113798902Y-78879134D01*
X113787566Y-78892198D01*
X113769686Y-78911648D01*
X113746089Y-78936616D01*
X113717603Y-78966231D01*
X113685056Y-78999623D01*
X113649275Y-79035922D01*
X113622589Y-79062754D01*
X113577632Y-79107671D01*
X113540042Y-79144923D01*
X113509146Y-79175132D01*
X113484274Y-79198921D01*
X113464751Y-79216912D01*
X113449906Y-79229727D01*
X113439066Y-79237986D01*
X113431559Y-79242313D01*
X113427327Y-79243364D01*
X113418206Y-79240128D01*
X113400393Y-79230372D01*
X113373781Y-79214028D01*
X113338261Y-79191026D01*
X113293723Y-79161298D01*
X113240059Y-79124772D01*
X113222272Y-79112553D01*
X113166421Y-79074379D01*
X113119187Y-79042657D01*
X113080696Y-79017470D01*
X113051073Y-78998896D01*
X113030444Y-78987017D01*
X113018934Y-78981913D01*
X113017522Y-78981705D01*
X113007410Y-78984377D01*
X112989450Y-78991754D01*
X112965831Y-79002839D01*
X112938744Y-79016634D01*
X112926318Y-79023289D01*
X112891895Y-79041918D01*
X112866089Y-79055529D01*
X112847426Y-79064714D01*
X112834433Y-79070063D01*
X112825634Y-79072168D01*
X112819556Y-79071620D01*
X112814725Y-79069009D01*
X112813879Y-79068369D01*
X112810140Y-79061900D01*
X112802500Y-79045719D01*
X112791370Y-79020826D01*
X112777161Y-78988218D01*
X112760287Y-78948894D01*
X112741158Y-78903853D01*
X112720186Y-78854091D01*
X112697784Y-78800608D01*
X112674364Y-78744402D01*
X112650337Y-78686471D01*
X112626116Y-78627814D01*
X112602112Y-78569428D01*
X112578737Y-78512312D01*
X112556403Y-78457464D01*
X112535522Y-78405883D01*
X112516506Y-78358566D01*
X112499767Y-78316513D01*
X112485717Y-78280720D01*
X112474768Y-78252187D01*
X112467331Y-78231912D01*
X112463819Y-78220892D01*
X112463591Y-78219482D01*
X112466546Y-78207727D01*
X112476858Y-78196590D01*
X112488125Y-78188651D01*
X112541200Y-78152072D01*
X112589955Y-78113701D01*
X112632206Y-78075382D01*
X112665769Y-78038960D01*
X112666264Y-78038352D01*
X112711632Y-77974581D01*
X112746033Y-77908023D01*
X112769704Y-77837953D01*
X112782881Y-77763646D01*
X112785799Y-77684379D01*
X112785383Y-77672407D01*
X112776483Y-77593814D01*
X112757042Y-77519473D01*
X112727490Y-77450043D01*
X112688257Y-77386182D01*
X112639774Y-77328545D01*
X112582470Y-77277793D01*
X112516776Y-77234581D01*
X112489569Y-77220209D01*
X112447591Y-77200614D01*
X112410524Y-77186446D01*
X112373909Y-77176387D01*
X112333289Y-77169115D01*
X112304789Y-77165501D01*
X112232543Y-77162502D01*
X112161595Y-77170235D01*
X112090849Y-77188908D01*
X112019209Y-77218729D01*
X112016205Y-77220209D01*
X111947494Y-77260331D01*
X111886968Y-77308260D01*
X111835067Y-77363322D01*
X111792232Y-77424842D01*
X111758905Y-77492149D01*
X111735527Y-77564567D01*
X111722540Y-77641425D01*
X111720414Y-77671802D01*
X111721536Y-77750608D01*
X111732263Y-77823715D01*
X111752963Y-77892350D01*
X111784002Y-77957741D01*
X111824571Y-78019546D01*
X111859965Y-78061016D01*
X111904684Y-78103780D01*
X111956878Y-78146219D01*
X112014701Y-78186715D01*
X112017648Y-78188622D01*
X112033718Y-78200796D01*
X112041062Y-78211862D01*
X112042182Y-78219482D01*
X112040017Y-78227320D01*
X112033794Y-78244735D01*
X112023927Y-78270727D01*
X112010827Y-78304300D01*
X111994905Y-78344453D01*
X111976575Y-78390190D01*
X111956248Y-78440512D01*
X111934335Y-78494421D01*
X111911249Y-78550918D01*
X111887402Y-78609005D01*
X111863205Y-78667684D01*
X111839071Y-78725957D01*
X111815412Y-78782825D01*
X111792638Y-78837290D01*
X111771163Y-78888354D01*
X111751398Y-78935019D01*
X111733755Y-78976286D01*
X111718647Y-79011157D01*
X111706484Y-79038634D01*
X111697679Y-79057719D01*
X111692644Y-79067412D01*
X111691895Y-79068369D01*
X111687131Y-79071287D01*
X111681385Y-79072248D01*
X111673182Y-79070662D01*
X111661048Y-79065937D01*
X111643508Y-79057482D01*
X111619090Y-79044706D01*
X111586317Y-79027019D01*
X111579456Y-79023289D01*
X111551537Y-79008621D01*
X111526125Y-78996223D01*
X111505411Y-78987095D01*
X111491584Y-78982234D01*
X111488252Y-78981705D01*
X111478991Y-78985141D01*
X111460579Y-78995371D01*
X111433143Y-79012315D01*
X111396809Y-79035893D01*
X111351700Y-79066024D01*
X111297944Y-79102629D01*
X111283501Y-79112553D01*
X111227095Y-79151119D01*
X111179847Y-79182867D01*
X111141649Y-79207868D01*
X111112391Y-79226190D01*
X111091966Y-79237904D01*
X111080264Y-79243077D01*
X111078447Y-79243364D01*
X111073225Y-79241867D01*
X111065238Y-79236961D01*
X111053811Y-79228025D01*
X111038273Y-79214436D01*
X111017952Y-79195572D01*
X110992174Y-79170812D01*
X110960268Y-79139534D01*
X110921561Y-79101115D01*
X110883185Y-79062754D01*
X110845624Y-79024930D01*
X110810714Y-78989401D01*
X110779282Y-78957036D01*
X110752156Y-78928705D01*
X110730164Y-78905279D01*
X110714134Y-78887628D01*
X110704894Y-78876620D01*
X110702909Y-78873327D01*
X110706078Y-78866804D01*
X110715130Y-78851828D01*
X110729379Y-78829442D01*
X110748143Y-78800689D01*
X110770738Y-78766613D01*
X110796481Y-78728256D01*
X110824687Y-78686661D01*
X110838569Y-78666336D01*
X110877807Y-78608660D01*
X110910264Y-78560173D01*
X110936008Y-78520769D01*
X110955105Y-78490341D01*
X110967623Y-78468785D01*
X110973630Y-78455993D01*
X110974228Y-78453154D01*
X110972082Y-78443028D01*
X110966056Y-78424098D01*
X110956766Y-78397879D01*
X110944828Y-78365889D01*
X110930857Y-78329644D01*
X110915469Y-78290661D01*
X110899282Y-78250457D01*
X110882910Y-78210548D01*
X110866969Y-78172451D01*
X110852076Y-78137682D01*
X110838847Y-78107759D01*
X110827897Y-78084198D01*
X110819843Y-78068516D01*
X110815502Y-78062340D01*
X110807453Y-78059668D01*
X110789311Y-78055204D01*
X110762342Y-78049212D01*
X110727815Y-78041956D01*
X110686997Y-78033700D01*
X110641156Y-78024708D01*
X110591559Y-78015244D01*
X110570981Y-78011391D01*
X110520406Y-78001850D01*
X110473221Y-77992712D01*
X110430669Y-77984236D01*
X110393995Y-77976679D01*
X110364440Y-77970299D01*
X110343247Y-77965356D01*
X110331660Y-77962107D01*
X110329970Y-77961322D01*
X110327833Y-77953896D01*
X110325985Y-77936360D01*
X110324425Y-77910146D01*
X110323154Y-77876686D01*
X110322168Y-77837413D01*
X110321470Y-77793759D01*
X110321056Y-77747154D01*
X110320926Y-77699033D01*
X110321079Y-77650825D01*
X110321515Y-77603964D01*
X110322231Y-77559882D01*
X110323230Y-77520011D01*
X110324508Y-77485782D01*
X110326065Y-77458628D01*
X110327901Y-77439980D01*
X110330014Y-77431271D01*
X110330284Y-77430964D01*
X110337624Y-77428435D01*
X110355080Y-77424120D01*
X110381406Y-77418276D01*
X110415356Y-77411163D01*
X110455683Y-77403039D01*
X110501140Y-77394163D01*
X110550482Y-77384794D01*
X110571296Y-77380917D01*
X110622186Y-77371414D01*
X110669985Y-77362343D01*
X110713398Y-77353961D01*
X110751128Y-77346524D01*
X110781881Y-77340288D01*
X110804360Y-77335511D01*
X110817271Y-77332450D01*
X110819402Y-77331787D01*
X110823825Y-77330113D01*
X110827645Y-77328223D01*
X110831372Y-77325090D01*
X110835515Y-77319687D01*
X110840584Y-77310988D01*
X110847088Y-77297965D01*
X110855536Y-77279593D01*
X110866438Y-77254843D01*
X110880304Y-77222689D01*
X110897643Y-77182104D01*
X110918964Y-77132061D01*
X110921849Y-77125291D01*
X110944456Y-77071642D01*
X110962237Y-77028105D01*
X110975310Y-76994360D01*
X110983798Y-76970087D01*
X110987819Y-76954967D01*
X110987994Y-76949494D01*
X110984006Y-76942336D01*
X110974150Y-76926736D01*
X110959130Y-76903747D01*
X110939645Y-76874420D01*
X110916399Y-76839810D01*
X110890092Y-76800969D01*
X110861426Y-76758948D01*
X110845722Y-76736047D01*
X110816133Y-76692814D01*
X110788568Y-76652233D01*
X110763724Y-76615349D01*
X110742298Y-76583213D01*
X110724987Y-76556873D01*
X110712487Y-76537376D01*
X110705495Y-76525772D01*
X110704263Y-76523189D01*
X110705296Y-76518584D01*
X110710383Y-76510518D01*
X110720091Y-76498377D01*
X110734986Y-76481546D01*
X110755634Y-76459412D01*
X110782602Y-76431361D01*
X110816456Y-76396779D01*
X110857762Y-76355051D01*
X110879633Y-76333076D01*
X110917283Y-76295401D01*
X110952700Y-76260163D01*
X110984995Y-76228230D01*
X111013284Y-76200469D01*
X111036679Y-76177747D01*
X111054295Y-76160932D01*
X111065245Y-76150889D01*
X111068361Y-76148409D01*
X111071570Y-76146760D01*
X111074987Y-76145894D01*
X111079450Y-76146328D01*
X111085797Y-76148581D01*
X111094866Y-76153170D01*
X111107496Y-76160613D01*
X111124523Y-76171430D01*
X111146787Y-76186136D01*
X111175124Y-76205251D01*
X111210374Y-76229292D01*
X111253374Y-76258778D01*
X111304962Y-76294226D01*
X111311103Y-76298447D01*
X111353365Y-76327388D01*
X111393006Y-76354329D01*
X111428942Y-76378549D01*
X111460092Y-76399328D01*
X111485373Y-76415945D01*
X111503702Y-76427679D01*
X111513997Y-76433811D01*
X111515494Y-76434497D01*
X111524884Y-76433852D01*
X111543425Y-76428715D01*
X111571440Y-76418977D01*
X111609251Y-76404523D01*
X111656387Y-76385569D01*
X111710947Y-76363232D01*
X111755803Y-76344788D01*
X111791943Y-76329770D01*
X111820354Y-76317710D01*
X111842022Y-76308143D01*
X111857937Y-76300600D01*
X111869083Y-76294615D01*
X111876450Y-76289722D01*
X111881024Y-76285453D01*
X111883792Y-76281342D01*
X111885648Y-76277158D01*
X111887989Y-76268277D01*
X111892134Y-76249317D01*
X111897828Y-76221562D01*
X111904820Y-76186294D01*
X111912856Y-76144795D01*
X111921685Y-76098348D01*
X111931052Y-76048236D01*
X111935333Y-76025069D01*
X111944835Y-75973852D01*
X111953886Y-75925825D01*
X111962239Y-75882255D01*
X111969643Y-75844407D01*
X111975850Y-75813547D01*
X111980610Y-75790941D01*
X111983676Y-75777856D01*
X111984441Y-75775398D01*
X111989980Y-75762410D01*
X112515793Y-75762410D01*
X112521333Y-75775398D01*
X112521333Y-75775398D01*
G37*
X112521333Y-75775398D02*
X112523546Y-75783743D01*
X112527568Y-75802182D01*
X112533149Y-75829450D01*
X112540040Y-75864281D01*
X112547992Y-75905410D01*
X112556757Y-75951569D01*
X112566086Y-76001494D01*
X112570441Y-76025069D01*
X112579963Y-76076387D01*
X112589054Y-76124600D01*
X112597461Y-76168427D01*
X112604933Y-76206588D01*
X112611217Y-76237802D01*
X112616061Y-76260789D01*
X112619214Y-76274266D01*
X112620009Y-76276877D01*
X112621668Y-76281278D01*
X112623462Y-76285022D01*
X112626451Y-76288618D01*
X112631690Y-76292577D01*
X112640239Y-76297409D01*
X112653156Y-76303626D01*
X112671497Y-76311738D01*
X112696321Y-76322254D01*
X112728686Y-76335687D01*
X112769650Y-76352546D01*
X112817647Y-76372264D01*
X112869327Y-76393279D01*
X112911081Y-76409745D01*
X112943500Y-76421875D01*
X112967177Y-76429882D01*
X112982702Y-76433977D01*
X112990669Y-76434374D01*
X112990676Y-76434371D01*
X112998021Y-76430318D01*
X113013765Y-76420408D01*
X113036819Y-76405364D01*
X113066098Y-76385912D01*
X113100513Y-76362774D01*
X113138976Y-76336676D01*
X113180402Y-76308341D01*
X113194459Y-76298677D01*
X113247031Y-76262497D01*
X113290930Y-76232345D01*
X113326994Y-76207702D01*
X113356062Y-76188050D01*
X113378971Y-76172871D01*
X113396558Y-76161647D01*
X113409663Y-76153859D01*
X113419123Y-76148990D01*
X113425775Y-76146520D01*
X113430458Y-76145932D01*
X113434010Y-76146708D01*
X113437268Y-76148329D01*
X113437413Y-76148409D01*
X113443578Y-76153607D01*
X113456983Y-76166140D01*
X113476740Y-76185140D01*
X113501965Y-76209740D01*
X113531769Y-76239074D01*
X113565268Y-76272272D01*
X113601574Y-76308469D01*
X113626141Y-76333076D01*
X113671284Y-76378520D01*
X113708692Y-76416524D01*
X113738916Y-76447684D01*
X113762508Y-76472600D01*
X113780020Y-76491867D01*
X113792003Y-76506084D01*
X113799010Y-76515849D01*
X113801592Y-76521758D01*
X113801546Y-76523052D01*
X113797746Y-76530049D01*
X113788076Y-76545497D01*
X113773232Y-76568349D01*
X113753907Y-76597558D01*
X113730798Y-76632077D01*
X113704599Y-76670861D01*
X113676005Y-76712861D01*
X113659969Y-76736284D01*
X113630353Y-76779597D01*
X113602731Y-76820266D01*
X113577802Y-76857241D01*
X113556264Y-76889473D01*
X113538818Y-76915913D01*
X113526162Y-76935510D01*
X113518996Y-76947216D01*
X113517661Y-76949868D01*
X113518830Y-76959262D01*
X113524992Y-76979031D01*
X113536137Y-77009149D01*
X113552255Y-77049585D01*
X113573335Y-77100313D01*
X113583925Y-77125291D01*
X113605764Y-77176552D01*
X113623559Y-77218231D01*
X113637820Y-77251354D01*
X113649055Y-77276948D01*
X113657774Y-77296040D01*
X113664487Y-77309658D01*
X113669702Y-77318827D01*
X113673931Y-77324575D01*
X113677681Y-77327929D01*
X113681463Y-77329915D01*
X113685785Y-77331561D01*
X113686371Y-77331787D01*
X113695293Y-77334128D01*
X113714277Y-77338281D01*
X113742029Y-77343991D01*
X113777252Y-77351000D01*
X113818652Y-77359052D01*
X113864931Y-77367891D01*
X113914796Y-77377260D01*
X113934478Y-77380917D01*
X113985039Y-77390412D01*
X114032221Y-77399519D01*
X114074777Y-77407978D01*
X114111460Y-77415532D01*
X114141025Y-77421921D01*
X114162226Y-77426887D01*
X114173814Y-77430171D01*
X114175489Y-77430964D01*
X114177635Y-77438392D01*
X114179504Y-77455929D01*
X114181095Y-77482144D01*
X114182406Y-77515605D01*
X114183438Y-77554879D01*
X114184189Y-77598534D01*
X114184658Y-77645138D01*
X114184845Y-77693260D01*
X114184749Y-77741468D01*
X114184369Y-77788328D01*
X114183704Y-77832410D01*
X114182753Y-77872280D01*
X114181515Y-77906508D01*
X114179990Y-77933661D01*
X114178176Y-77952307D01*
X114176074Y-77961014D01*
X114175804Y-77961322D01*
X114168536Y-77963797D01*
X114151151Y-77968074D01*
X114124892Y-77973892D01*
X114091000Y-77980995D01*
X114050720Y-77989124D01*
X114005294Y-77998021D01*
X113955965Y-78007427D01*
X113934792Y-78011391D01*
X113884049Y-78020970D01*
X113836555Y-78030182D01*
X113793579Y-78038763D01*
X113756387Y-78046450D01*
X113726247Y-78052979D01*
X113704427Y-78058085D01*
X113692195Y-78061504D01*
X113690271Y-78062340D01*
X113685447Y-78069374D01*
X113677157Y-78085692D01*
X113666017Y-78109776D01*
X113652644Y-78140110D01*
X113637652Y-78175177D01*
X113621658Y-78213461D01*
X113605279Y-78253444D01*
X113589129Y-78293609D01*
X113573826Y-78332442D01*
X113559984Y-78368423D01*
X113548221Y-78400038D01*
X113539151Y-78425769D01*
X113533392Y-78444099D01*
X113531546Y-78453154D01*
X113534765Y-78462197D01*
X113544466Y-78479960D01*
X113560716Y-78506548D01*
X113583584Y-78542066D01*
X113613137Y-78586622D01*
X113649441Y-78640321D01*
X113667205Y-78666336D01*
X113696331Y-78709089D01*
X113723313Y-78749094D01*
X113747469Y-78785308D01*
X113768115Y-78816688D01*
X113784567Y-78842189D01*
X113796141Y-78860770D01*
X113802154Y-78871387D01*
X113802864Y-78873327D01*
X113798902Y-78879134D01*
X113787566Y-78892198D01*
X113769686Y-78911648D01*
X113746089Y-78936616D01*
X113717603Y-78966231D01*
X113685056Y-78999623D01*
X113649275Y-79035922D01*
X113622589Y-79062754D01*
X113577632Y-79107671D01*
X113540042Y-79144923D01*
X113509146Y-79175132D01*
X113484274Y-79198921D01*
X113464751Y-79216912D01*
X113449906Y-79229727D01*
X113439066Y-79237986D01*
X113431559Y-79242313D01*
X113427327Y-79243364D01*
X113418206Y-79240128D01*
X113400393Y-79230372D01*
X113373781Y-79214028D01*
X113338261Y-79191026D01*
X113293723Y-79161298D01*
X113240059Y-79124772D01*
X113222272Y-79112553D01*
X113166421Y-79074379D01*
X113119187Y-79042657D01*
X113080696Y-79017470D01*
X113051073Y-78998896D01*
X113030444Y-78987017D01*
X113018934Y-78981913D01*
X113017522Y-78981705D01*
X113007410Y-78984377D01*
X112989450Y-78991754D01*
X112965831Y-79002839D01*
X112938744Y-79016634D01*
X112926318Y-79023289D01*
X112891895Y-79041918D01*
X112866089Y-79055529D01*
X112847426Y-79064714D01*
X112834433Y-79070063D01*
X112825634Y-79072168D01*
X112819556Y-79071620D01*
X112814725Y-79069009D01*
X112813879Y-79068369D01*
X112810140Y-79061900D01*
X112802500Y-79045719D01*
X112791370Y-79020826D01*
X112777161Y-78988218D01*
X112760287Y-78948894D01*
X112741158Y-78903853D01*
X112720186Y-78854091D01*
X112697784Y-78800608D01*
X112674364Y-78744402D01*
X112650337Y-78686471D01*
X112626116Y-78627814D01*
X112602112Y-78569428D01*
X112578737Y-78512312D01*
X112556403Y-78457464D01*
X112535522Y-78405883D01*
X112516506Y-78358566D01*
X112499767Y-78316513D01*
X112485717Y-78280720D01*
X112474768Y-78252187D01*
X112467331Y-78231912D01*
X112463819Y-78220892D01*
X112463591Y-78219482D01*
X112466546Y-78207727D01*
X112476858Y-78196590D01*
X112488125Y-78188651D01*
X112541200Y-78152072D01*
X112589955Y-78113701D01*
X112632206Y-78075382D01*
X112665769Y-78038960D01*
X112666264Y-78038352D01*
X112711632Y-77974581D01*
X112746033Y-77908023D01*
X112769704Y-77837953D01*
X112782881Y-77763646D01*
X112785799Y-77684379D01*
X112785383Y-77672407D01*
X112776483Y-77593814D01*
X112757042Y-77519473D01*
X112727490Y-77450043D01*
X112688257Y-77386182D01*
X112639774Y-77328545D01*
X112582470Y-77277793D01*
X112516776Y-77234581D01*
X112489569Y-77220209D01*
X112447591Y-77200614D01*
X112410524Y-77186446D01*
X112373909Y-77176387D01*
X112333289Y-77169115D01*
X112304789Y-77165501D01*
X112232543Y-77162502D01*
X112161595Y-77170235D01*
X112090849Y-77188908D01*
X112019209Y-77218729D01*
X112016205Y-77220209D01*
X111947494Y-77260331D01*
X111886968Y-77308260D01*
X111835067Y-77363322D01*
X111792232Y-77424842D01*
X111758905Y-77492149D01*
X111735527Y-77564567D01*
X111722540Y-77641425D01*
X111720414Y-77671802D01*
X111721536Y-77750608D01*
X111732263Y-77823715D01*
X111752963Y-77892350D01*
X111784002Y-77957741D01*
X111824571Y-78019546D01*
X111859965Y-78061016D01*
X111904684Y-78103780D01*
X111956878Y-78146219D01*
X112014701Y-78186715D01*
X112017648Y-78188622D01*
X112033718Y-78200796D01*
X112041062Y-78211862D01*
X112042182Y-78219482D01*
X112040017Y-78227320D01*
X112033794Y-78244735D01*
X112023927Y-78270727D01*
X112010827Y-78304300D01*
X111994905Y-78344453D01*
X111976575Y-78390190D01*
X111956248Y-78440512D01*
X111934335Y-78494421D01*
X111911249Y-78550918D01*
X111887402Y-78609005D01*
X111863205Y-78667684D01*
X111839071Y-78725957D01*
X111815412Y-78782825D01*
X111792638Y-78837290D01*
X111771163Y-78888354D01*
X111751398Y-78935019D01*
X111733755Y-78976286D01*
X111718647Y-79011157D01*
X111706484Y-79038634D01*
X111697679Y-79057719D01*
X111692644Y-79067412D01*
X111691895Y-79068369D01*
X111687131Y-79071287D01*
X111681385Y-79072248D01*
X111673182Y-79070662D01*
X111661048Y-79065937D01*
X111643508Y-79057482D01*
X111619090Y-79044706D01*
X111586317Y-79027019D01*
X111579456Y-79023289D01*
X111551537Y-79008621D01*
X111526125Y-78996223D01*
X111505411Y-78987095D01*
X111491584Y-78982234D01*
X111488252Y-78981705D01*
X111478991Y-78985141D01*
X111460579Y-78995371D01*
X111433143Y-79012315D01*
X111396809Y-79035893D01*
X111351700Y-79066024D01*
X111297944Y-79102629D01*
X111283501Y-79112553D01*
X111227095Y-79151119D01*
X111179847Y-79182867D01*
X111141649Y-79207868D01*
X111112391Y-79226190D01*
X111091966Y-79237904D01*
X111080264Y-79243077D01*
X111078447Y-79243364D01*
X111073225Y-79241867D01*
X111065238Y-79236961D01*
X111053811Y-79228025D01*
X111038273Y-79214436D01*
X111017952Y-79195572D01*
X110992174Y-79170812D01*
X110960268Y-79139534D01*
X110921561Y-79101115D01*
X110883185Y-79062754D01*
X110845624Y-79024930D01*
X110810714Y-78989401D01*
X110779282Y-78957036D01*
X110752156Y-78928705D01*
X110730164Y-78905279D01*
X110714134Y-78887628D01*
X110704894Y-78876620D01*
X110702909Y-78873327D01*
X110706078Y-78866804D01*
X110715130Y-78851828D01*
X110729379Y-78829442D01*
X110748143Y-78800689D01*
X110770738Y-78766613D01*
X110796481Y-78728256D01*
X110824687Y-78686661D01*
X110838569Y-78666336D01*
X110877807Y-78608660D01*
X110910264Y-78560173D01*
X110936008Y-78520769D01*
X110955105Y-78490341D01*
X110967623Y-78468785D01*
X110973630Y-78455993D01*
X110974228Y-78453154D01*
X110972082Y-78443028D01*
X110966056Y-78424098D01*
X110956766Y-78397879D01*
X110944828Y-78365889D01*
X110930857Y-78329644D01*
X110915469Y-78290661D01*
X110899282Y-78250457D01*
X110882910Y-78210548D01*
X110866969Y-78172451D01*
X110852076Y-78137682D01*
X110838847Y-78107759D01*
X110827897Y-78084198D01*
X110819843Y-78068516D01*
X110815502Y-78062340D01*
X110807453Y-78059668D01*
X110789311Y-78055204D01*
X110762342Y-78049212D01*
X110727815Y-78041956D01*
X110686997Y-78033700D01*
X110641156Y-78024708D01*
X110591559Y-78015244D01*
X110570981Y-78011391D01*
X110520406Y-78001850D01*
X110473221Y-77992712D01*
X110430669Y-77984236D01*
X110393995Y-77976679D01*
X110364440Y-77970299D01*
X110343247Y-77965356D01*
X110331660Y-77962107D01*
X110329970Y-77961322D01*
X110327833Y-77953896D01*
X110325985Y-77936360D01*
X110324425Y-77910146D01*
X110323154Y-77876686D01*
X110322168Y-77837413D01*
X110321470Y-77793759D01*
X110321056Y-77747154D01*
X110320926Y-77699033D01*
X110321079Y-77650825D01*
X110321515Y-77603964D01*
X110322231Y-77559882D01*
X110323230Y-77520011D01*
X110324508Y-77485782D01*
X110326065Y-77458628D01*
X110327901Y-77439980D01*
X110330014Y-77431271D01*
X110330284Y-77430964D01*
X110337624Y-77428435D01*
X110355080Y-77424120D01*
X110381406Y-77418276D01*
X110415356Y-77411163D01*
X110455683Y-77403039D01*
X110501140Y-77394163D01*
X110550482Y-77384794D01*
X110571296Y-77380917D01*
X110622186Y-77371414D01*
X110669985Y-77362343D01*
X110713398Y-77353961D01*
X110751128Y-77346524D01*
X110781881Y-77340288D01*
X110804360Y-77335511D01*
X110817271Y-77332450D01*
X110819402Y-77331787D01*
X110823825Y-77330113D01*
X110827645Y-77328223D01*
X110831372Y-77325090D01*
X110835515Y-77319687D01*
X110840584Y-77310988D01*
X110847088Y-77297965D01*
X110855536Y-77279593D01*
X110866438Y-77254843D01*
X110880304Y-77222689D01*
X110897643Y-77182104D01*
X110918964Y-77132061D01*
X110921849Y-77125291D01*
X110944456Y-77071642D01*
X110962237Y-77028105D01*
X110975310Y-76994360D01*
X110983798Y-76970087D01*
X110987819Y-76954967D01*
X110987994Y-76949494D01*
X110984006Y-76942336D01*
X110974150Y-76926736D01*
X110959130Y-76903747D01*
X110939645Y-76874420D01*
X110916399Y-76839810D01*
X110890092Y-76800969D01*
X110861426Y-76758948D01*
X110845722Y-76736047D01*
X110816133Y-76692814D01*
X110788568Y-76652233D01*
X110763724Y-76615349D01*
X110742298Y-76583213D01*
X110724987Y-76556873D01*
X110712487Y-76537376D01*
X110705495Y-76525772D01*
X110704263Y-76523189D01*
X110705296Y-76518584D01*
X110710383Y-76510518D01*
X110720091Y-76498377D01*
X110734986Y-76481546D01*
X110755634Y-76459412D01*
X110782602Y-76431361D01*
X110816456Y-76396779D01*
X110857762Y-76355051D01*
X110879633Y-76333076D01*
X110917283Y-76295401D01*
X110952700Y-76260163D01*
X110984995Y-76228230D01*
X111013284Y-76200469D01*
X111036679Y-76177747D01*
X111054295Y-76160932D01*
X111065245Y-76150889D01*
X111068361Y-76148409D01*
X111071570Y-76146760D01*
X111074987Y-76145894D01*
X111079450Y-76146328D01*
X111085797Y-76148581D01*
X111094866Y-76153170D01*
X111107496Y-76160613D01*
X111124523Y-76171430D01*
X111146787Y-76186136D01*
X111175124Y-76205251D01*
X111210374Y-76229292D01*
X111253374Y-76258778D01*
X111304962Y-76294226D01*
X111311103Y-76298447D01*
X111353365Y-76327388D01*
X111393006Y-76354329D01*
X111428942Y-76378549D01*
X111460092Y-76399328D01*
X111485373Y-76415945D01*
X111503702Y-76427679D01*
X111513997Y-76433811D01*
X111515494Y-76434497D01*
X111524884Y-76433852D01*
X111543425Y-76428715D01*
X111571440Y-76418977D01*
X111609251Y-76404523D01*
X111656387Y-76385569D01*
X111710947Y-76363232D01*
X111755803Y-76344788D01*
X111791943Y-76329770D01*
X111820354Y-76317710D01*
X111842022Y-76308143D01*
X111857937Y-76300600D01*
X111869083Y-76294615D01*
X111876450Y-76289722D01*
X111881024Y-76285453D01*
X111883792Y-76281342D01*
X111885648Y-76277158D01*
X111887989Y-76268277D01*
X111892134Y-76249317D01*
X111897828Y-76221562D01*
X111904820Y-76186294D01*
X111912856Y-76144795D01*
X111921685Y-76098348D01*
X111931052Y-76048236D01*
X111935333Y-76025069D01*
X111944835Y-75973852D01*
X111953886Y-75925825D01*
X111962239Y-75882255D01*
X111969643Y-75844407D01*
X111975850Y-75813547D01*
X111980610Y-75790941D01*
X111983676Y-75777856D01*
X111984441Y-75775398D01*
X111989980Y-75762410D01*
X112515793Y-75762410D01*
X112521333Y-75775398D01*
G04 #@! TO.C,C7*
D11*
X100284933Y-62357142D02*
X100237314Y-62404761D01*
X100094457Y-62452380D01*
X99999219Y-62452380D01*
X99856361Y-62404761D01*
X99761123Y-62309523D01*
X99713504Y-62214285D01*
X99665885Y-62023809D01*
X99665885Y-61880952D01*
X99713504Y-61690476D01*
X99761123Y-61595238D01*
X99856361Y-61500000D01*
X99999219Y-61452380D01*
X100094457Y-61452380D01*
X100237314Y-61500000D01*
X100284933Y-61547619D01*
X100618266Y-61452380D02*
X101284933Y-61452380D01*
X100856361Y-62452380D01*
G04 #@! TO.C,C6*
X103583333Y-75607142D02*
X103535714Y-75654761D01*
X103392857Y-75702380D01*
X103297619Y-75702380D01*
X103154761Y-75654761D01*
X103059523Y-75559523D01*
X103011904Y-75464285D01*
X102964285Y-75273809D01*
X102964285Y-75130952D01*
X103011904Y-74940476D01*
X103059523Y-74845238D01*
X103154761Y-74750000D01*
X103297619Y-74702380D01*
X103392857Y-74702380D01*
X103535714Y-74750000D01*
X103583333Y-74797619D01*
X104440476Y-74702380D02*
X104250000Y-74702380D01*
X104154761Y-74750000D01*
X104107142Y-74797619D01*
X104011904Y-74940476D01*
X103964285Y-75130952D01*
X103964285Y-75511904D01*
X104011904Y-75607142D01*
X104059523Y-75654761D01*
X104154761Y-75702380D01*
X104345238Y-75702380D01*
X104440476Y-75654761D01*
X104488095Y-75607142D01*
X104535714Y-75511904D01*
X104535714Y-75273809D01*
X104488095Y-75178571D01*
X104440476Y-75130952D01*
X104345238Y-75083333D01*
X104154761Y-75083333D01*
X104059523Y-75130952D01*
X104011904Y-75178571D01*
X103964285Y-75273809D01*
G04 #@! TO.C,C5*
X94857142Y-70166666D02*
X94904761Y-70214285D01*
X94952380Y-70357142D01*
X94952380Y-70452380D01*
X94904761Y-70595238D01*
X94809523Y-70690476D01*
X94714285Y-70738095D01*
X94523809Y-70785714D01*
X94380952Y-70785714D01*
X94190476Y-70738095D01*
X94095238Y-70690476D01*
X94000000Y-70595238D01*
X93952380Y-70452380D01*
X93952380Y-70357142D01*
X94000000Y-70214285D01*
X94047619Y-70166666D01*
X93952380Y-69261904D02*
X93952380Y-69738095D01*
X94428571Y-69785714D01*
X94380952Y-69738095D01*
X94333333Y-69642857D01*
X94333333Y-69404761D01*
X94380952Y-69309523D01*
X94428571Y-69261904D01*
X94523809Y-69214285D01*
X94761904Y-69214285D01*
X94857142Y-69261904D01*
X94904761Y-69309523D01*
X94952380Y-69404761D01*
X94952380Y-69642857D01*
X94904761Y-69738095D01*
X94857142Y-69785714D01*
G04 #@! TO.C,C4*
X93833333Y-61857142D02*
X93785714Y-61904761D01*
X93642857Y-61952380D01*
X93547619Y-61952380D01*
X93404761Y-61904761D01*
X93309523Y-61809523D01*
X93261904Y-61714285D01*
X93214285Y-61523809D01*
X93214285Y-61380952D01*
X93261904Y-61190476D01*
X93309523Y-61095238D01*
X93404761Y-61000000D01*
X93547619Y-60952380D01*
X93642857Y-60952380D01*
X93785714Y-61000000D01*
X93833333Y-61047619D01*
X94690476Y-61285714D02*
X94690476Y-61952380D01*
X94452380Y-60904761D02*
X94214285Y-61619047D01*
X94833333Y-61619047D01*
G04 #@! TO.C,C2*
X99107142Y-70166666D02*
X99154761Y-70214285D01*
X99202380Y-70357142D01*
X99202380Y-70452380D01*
X99154761Y-70595238D01*
X99059523Y-70690476D01*
X98964285Y-70738095D01*
X98773809Y-70785714D01*
X98630952Y-70785714D01*
X98440476Y-70738095D01*
X98345238Y-70690476D01*
X98250000Y-70595238D01*
X98202380Y-70452380D01*
X98202380Y-70357142D01*
X98250000Y-70214285D01*
X98297619Y-70166666D01*
X98297619Y-69785714D02*
X98250000Y-69738095D01*
X98202380Y-69642857D01*
X98202380Y-69404761D01*
X98250000Y-69309523D01*
X98297619Y-69261904D01*
X98392857Y-69214285D01*
X98488095Y-69214285D01*
X98630952Y-69261904D01*
X99202380Y-69833333D01*
X99202380Y-69214285D01*
G04 #@! TO.C,J2*
X91462266Y-78230480D02*
X91462266Y-78944766D01*
X91414647Y-79087623D01*
X91319409Y-79182861D01*
X91176552Y-79230480D01*
X91081314Y-79230480D01*
X91890838Y-78325719D02*
X91938457Y-78278100D01*
X92033695Y-78230480D01*
X92271790Y-78230480D01*
X92367028Y-78278100D01*
X92414647Y-78325719D01*
X92462266Y-78420957D01*
X92462266Y-78516195D01*
X92414647Y-78659052D01*
X91843219Y-79230480D01*
X92462266Y-79230480D01*
G04 #@! TO.C,L1*
X100333333Y-77452380D02*
X99857142Y-77452380D01*
X99857142Y-76452380D01*
X101190476Y-77452380D02*
X100619047Y-77452380D01*
X100904761Y-77452380D02*
X100904761Y-76452380D01*
X100809523Y-76595238D01*
X100714285Y-76690476D01*
X100619047Y-76738095D01*
G04 #@! TO.C,J1*
X113128466Y-73594980D02*
X113128466Y-74309266D01*
X113080847Y-74452123D01*
X112985609Y-74547361D01*
X112842752Y-74594980D01*
X112747514Y-74594980D01*
X114128466Y-74594980D02*
X113557038Y-74594980D01*
X113842752Y-74594980D02*
X113842752Y-73594980D01*
X113747514Y-73737838D01*
X113652276Y-73833076D01*
X113557038Y-73880695D01*
G04 #@! TO.C,C1*
X98083333Y-79107142D02*
X98035714Y-79154761D01*
X97892857Y-79202380D01*
X97797619Y-79202380D01*
X97654761Y-79154761D01*
X97559523Y-79059523D01*
X97511904Y-78964285D01*
X97464285Y-78773809D01*
X97464285Y-78630952D01*
X97511904Y-78440476D01*
X97559523Y-78345238D01*
X97654761Y-78250000D01*
X97797619Y-78202380D01*
X97892857Y-78202380D01*
X98035714Y-78250000D01*
X98083333Y-78297619D01*
X99035714Y-79202380D02*
X98464285Y-79202380D01*
X98750000Y-79202380D02*
X98750000Y-78202380D01*
X98654761Y-78345238D01*
X98559523Y-78440476D01*
X98464285Y-78488095D01*
G04 #@! TO.C,C3*
X100083333Y-74107142D02*
X100035714Y-74154761D01*
X99892857Y-74202380D01*
X99797619Y-74202380D01*
X99654761Y-74154761D01*
X99559523Y-74059523D01*
X99511904Y-73964285D01*
X99464285Y-73773809D01*
X99464285Y-73630952D01*
X99511904Y-73440476D01*
X99559523Y-73345238D01*
X99654761Y-73250000D01*
X99797619Y-73202380D01*
X99892857Y-73202380D01*
X100035714Y-73250000D01*
X100083333Y-73297619D01*
X100416666Y-73202380D02*
X101035714Y-73202380D01*
X100702380Y-73583333D01*
X100845238Y-73583333D01*
X100940476Y-73630952D01*
X100988095Y-73678571D01*
X101035714Y-73773809D01*
X101035714Y-74011904D01*
X100988095Y-74107142D01*
X100940476Y-74154761D01*
X100845238Y-74202380D01*
X100559523Y-74202380D01*
X100464285Y-74154761D01*
X100416666Y-74107142D01*
G04 #@! TO.C,IC1*
X99552380Y-67776190D02*
X98552380Y-67776190D01*
X99457142Y-66728571D02*
X99504761Y-66776190D01*
X99552380Y-66919047D01*
X99552380Y-67014285D01*
X99504761Y-67157142D01*
X99409523Y-67252380D01*
X99314285Y-67300000D01*
X99123809Y-67347619D01*
X98980952Y-67347619D01*
X98790476Y-67300000D01*
X98695238Y-67252380D01*
X98600000Y-67157142D01*
X98552380Y-67014285D01*
X98552380Y-66919047D01*
X98600000Y-66776190D01*
X98647619Y-66728571D01*
X99552380Y-65776190D02*
X99552380Y-66347619D01*
X99552380Y-66061904D02*
X98552380Y-66061904D01*
X98695238Y-66157142D01*
X98790476Y-66252380D01*
X98838095Y-66347619D01*
G04 #@! TO.C,R1*
X107583333Y-79202380D02*
X107250000Y-78726190D01*
X107011904Y-79202380D02*
X107011904Y-78202380D01*
X107392857Y-78202380D01*
X107488095Y-78250000D01*
X107535714Y-78297619D01*
X107583333Y-78392857D01*
X107583333Y-78535714D01*
X107535714Y-78630952D01*
X107488095Y-78678571D01*
X107392857Y-78726190D01*
X107011904Y-78726190D01*
X108535714Y-79202380D02*
X107964285Y-79202380D01*
X108250000Y-79202380D02*
X108250000Y-78202380D01*
X108154761Y-78345238D01*
X108059523Y-78440476D01*
X107964285Y-78488095D01*
G04 #@! TO.C,R2*
X109516933Y-63015880D02*
X109183600Y-62539690D01*
X108945504Y-63015880D02*
X108945504Y-62015880D01*
X109326457Y-62015880D01*
X109421695Y-62063500D01*
X109469314Y-62111119D01*
X109516933Y-62206357D01*
X109516933Y-62349214D01*
X109469314Y-62444452D01*
X109421695Y-62492071D01*
X109326457Y-62539690D01*
X108945504Y-62539690D01*
X109897885Y-62111119D02*
X109945504Y-62063500D01*
X110040742Y-62015880D01*
X110278838Y-62015880D01*
X110374076Y-62063500D01*
X110421695Y-62111119D01*
X110469314Y-62206357D01*
X110469314Y-62301595D01*
X110421695Y-62444452D01*
X109850266Y-63015880D01*
X110469314Y-63015880D01*
G04 #@! TO.C,R3*
X107583333Y-74452380D02*
X107250000Y-73976190D01*
X107011904Y-74452380D02*
X107011904Y-73452380D01*
X107392857Y-73452380D01*
X107488095Y-73500000D01*
X107535714Y-73547619D01*
X107583333Y-73642857D01*
X107583333Y-73785714D01*
X107535714Y-73880952D01*
X107488095Y-73928571D01*
X107392857Y-73976190D01*
X107011904Y-73976190D01*
X107916666Y-73452380D02*
X108535714Y-73452380D01*
X108202380Y-73833333D01*
X108345238Y-73833333D01*
X108440476Y-73880952D01*
X108488095Y-73928571D01*
X108535714Y-74023809D01*
X108535714Y-74261904D01*
X108488095Y-74357142D01*
X108440476Y-74404761D01*
X108345238Y-74452380D01*
X108059523Y-74452380D01*
X107964285Y-74404761D01*
X107916666Y-74357142D01*
G04 #@! TO.C,R4*
X109428033Y-64553980D02*
X109094700Y-64077790D01*
X108856604Y-64553980D02*
X108856604Y-63553980D01*
X109237557Y-63553980D01*
X109332795Y-63601600D01*
X109380414Y-63649219D01*
X109428033Y-63744457D01*
X109428033Y-63887314D01*
X109380414Y-63982552D01*
X109332795Y-64030171D01*
X109237557Y-64077790D01*
X108856604Y-64077790D01*
X110285176Y-63887314D02*
X110285176Y-64553980D01*
X110047080Y-63506361D02*
X109808985Y-64220647D01*
X110428033Y-64220647D01*
G04 #@! TD*
%LPC*%
D13*
G04 #@! TO.C,C7*
X102500000Y-62500000D03*
X105000000Y-62500000D03*
G04 #@! TD*
G04 #@! TO.C,C6*
X105000000Y-77000000D03*
X102500000Y-77000000D03*
G04 #@! TD*
D14*
G04 #@! TO.C,C5*
X95500000Y-74500000D03*
X95500000Y-72000000D03*
G04 #@! TD*
D13*
G04 #@! TO.C,C4*
X96000000Y-62000000D03*
X98500000Y-62000000D03*
G04 #@! TD*
D14*
G04 #@! TO.C,C2*
X97500000Y-74500000D03*
X97500000Y-72000000D03*
G04 #@! TD*
D15*
G04 #@! TO.C,J2*
X91800000Y-63700000D03*
X91800000Y-66240000D03*
X91800000Y-68780000D03*
X91800000Y-71320000D03*
X91800000Y-73860000D03*
D16*
X91800000Y-76400000D03*
G04 #@! TD*
D17*
G04 #@! TO.C,L1*
X99000000Y-77000000D03*
X97500000Y-77000000D03*
G04 #@! TD*
D18*
G04 #@! TO.C,J1*
X110600000Y-73700000D03*
X112600000Y-66300000D03*
D19*
X103200000Y-66300000D03*
D20*
X111500000Y-70000000D03*
X104500000Y-70000000D03*
G04 #@! TD*
D21*
G04 #@! TO.C,C1*
X95500000Y-77000000D03*
X95500000Y-78100000D03*
G04 #@! TD*
D22*
G04 #@! TO.C,C3*
X99950000Y-75000000D03*
X101050000Y-75000000D03*
G04 #@! TD*
D23*
G04 #@! TO.C,IC1*
X97500000Y-69000000D03*
X97000000Y-69000000D03*
X96500000Y-69000000D03*
X96000000Y-69000000D03*
X95500000Y-69000000D03*
X95500000Y-64600000D03*
X96000000Y-64600000D03*
X96500000Y-64600000D03*
X97000000Y-64600000D03*
X97500000Y-64600000D03*
G04 #@! TD*
D24*
G04 #@! TO.C,R1*
X107950000Y-77000000D03*
X107050000Y-77000000D03*
G04 #@! TD*
G04 #@! TO.C,R2*
X107100000Y-62500000D03*
X108000000Y-62500000D03*
G04 #@! TD*
G04 #@! TO.C,R3*
X107100000Y-75500000D03*
X108000000Y-75500000D03*
G04 #@! TD*
G04 #@! TO.C,R4*
X108000000Y-64000000D03*
X107100000Y-64000000D03*
G04 #@! TD*
M02*
